<svg id="svg" version="1.1" xmlns="http://www.w3.org/2000/svg" xmlns:xlink="http://www.w3.org/1999/xlink" width="400" height="400" viewBox="0, 0, 400,400"><g id="svgg"><path id="path0" d="M116.584 264.900 C 116.480 265.175,116.440 285.650,116.497 310.400 L 116.600 355.400 149.200 355.516 C 167.130 355.580,182.569 355.524,183.509 355.390 L 185.218 355.148 185.109 347.874 L 185.000 340.600 159.685 340.400 C 137.766 340.227,134.320 340.120,133.991 339.600 C 133.776 339.259,133.610 334.048,133.606 327.509 L 133.600 316.018 134.683 315.309 C 135.685 314.652,137.365 314.600,157.483 314.600 L 179.201 314.600 179.419 313.400 C 179.539 312.740,179.584 309.590,179.519 306.400 L 179.400 300.600 157.068 300.400 C 135.545 300.207,134.715 300.172,134.168 299.424 C 133.078 297.933,133.362 280.612,134.489 279.823 C 135.270 279.276,138.295 279.200,159.289 279.200 L 183.200 279.200 183.200 271.800 L 183.200 264.400 149.987 264.400 C 123.786 264.400,116.735 264.506,116.584 264.900 M200.584 264.900 C 200.480 265.175,200.440 285.650,200.497 310.400 L 200.600 355.400 207.863 355.509 C 214.116 355.603,215.215 355.528,215.772 354.971 C 216.356 354.387,216.416 351.644,216.389 326.757 C 216.372 311.595,216.469 299.012,216.603 298.795 C 217.324 297.628,220.400 299.114,220.400 300.631 C 220.400 300.910,220.825 301.647,221.345 302.269 C 221.865 302.891,222.431 303.849,222.603 304.398 C 222.776 304.948,223.162 305.578,223.461 305.798 C 224.019 306.210,225.041 307.913,226.222 310.400 C 226.587 311.170,227.113 311.931,227.391 312.091 C 227.668 312.250,228.136 312.963,228.430 313.673 C 228.725 314.384,229.210 315.243,229.509 315.583 C 230.644 316.871,232.386 319.827,232.393 320.477 C 232.397 320.850,232.756 321.404,233.192 321.709 C 233.628 322.015,234.247 322.894,234.569 323.664 C 234.891 324.434,235.417 325.282,235.738 325.548 C 236.059 325.815,236.433 326.475,236.568 327.016 C 236.704 327.557,237.002 328.000,237.230 328.000 C 237.458 328.000,238.000 328.803,238.434 329.783 C 238.868 330.764,239.400 331.677,239.617 331.811 C 239.835 331.945,240.289 332.627,240.628 333.327 C 241.741 335.631,242.729 337.273,243.524 338.143 C 243.955 338.614,244.437 339.423,244.594 339.939 C 244.751 340.456,245.143 341.176,245.466 341.539 C 246.626 342.844,248.386 345.813,248.393 346.477 C 248.397 346.850,248.756 347.404,249.192 347.709 C 249.628 348.015,250.260 348.925,250.597 349.732 C 250.935 350.539,251.371 351.200,251.566 351.200 C 251.762 351.200,252.110 351.740,252.340 352.400 C 252.570 353.060,253.248 354.053,253.846 354.608 L 254.934 355.616 263.167 355.508 L 271.400 355.400 271.400 310.000 L 271.400 264.600 263.800 264.600 L 256.200 264.600 256.097 292.853 C 255.983 324.363,256.121 322.893,253.415 321.436 C 252.653 321.026,251.810 320.102,251.430 319.262 C 250.372 316.925,249.299 315.048,248.638 314.378 C 248.301 314.036,247.746 313.091,247.407 312.278 C 247.067 311.465,246.626 310.800,246.426 310.800 C 246.226 310.800,245.854 310.170,245.600 309.400 C 245.346 308.630,244.966 308.000,244.755 308.000 C 244.544 308.000,244.033 307.210,243.619 306.244 C 243.205 305.278,242.669 304.366,242.427 304.217 C 242.186 304.067,241.711 303.373,241.372 302.673 C 240.259 300.369,239.271 298.727,238.476 297.857 C 238.045 297.386,237.563 296.577,237.406 296.061 C 237.249 295.544,236.858 294.824,236.536 294.461 C 235.553 293.352,233.911 290.664,233.505 289.500 C 233.294 288.895,232.949 288.400,232.738 288.400 C 232.528 288.400,232.007 287.614,231.582 286.653 C 231.157 285.692,230.537 284.680,230.205 284.404 C 229.872 284.128,229.600 283.652,229.600 283.347 C 229.600 283.042,229.241 282.485,228.802 282.109 C 228.364 281.734,227.795 280.790,227.539 280.013 C 227.283 279.236,226.831 278.420,226.534 278.200 C 225.946 277.764,224.820 275.860,223.755 273.500 C 223.383 272.675,222.916 272.000,222.717 272.000 C 222.518 272.000,221.997 271.190,221.559 270.200 C 221.121 269.210,220.609 268.400,220.420 268.400 C 220.232 268.400,219.882 267.837,219.642 267.150 C 218.713 264.484,218.392 264.400,209.126 264.400 C 202.813 264.400,200.728 264.522,200.584 264.900 M282.637 264.740 C 282.521 264.927,282.848 265.652,283.364 266.351 C 283.879 267.050,284.422 268.377,284.570 269.300 C 284.717 270.224,285.098 271.266,285.416 271.617 C 285.733 271.968,286.176 273.221,286.400 274.400 C 286.624 275.579,287.074 276.839,287.400 277.200 C 287.726 277.561,288.176 278.821,288.400 280.000 C 288.624 281.179,289.082 282.449,289.419 282.821 C 289.756 283.194,290.178 284.423,290.357 285.552 C 290.535 286.682,290.977 287.932,291.337 288.331 C 291.698 288.729,292.176 290.021,292.400 291.200 C 292.624 292.379,293.069 293.634,293.390 293.989 C 293.710 294.343,294.179 295.615,294.431 296.816 C 294.684 298.017,295.138 299.283,295.442 299.628 C 295.745 299.973,296.176 301.221,296.400 302.400 C 296.624 303.579,297.074 304.839,297.400 305.200 C 297.726 305.561,298.176 306.821,298.400 308.000 C 298.624 309.179,299.082 310.449,299.419 310.821 C 299.756 311.194,300.178 312.423,300.357 313.552 C 300.535 314.682,300.972 315.927,301.327 316.319 C 301.682 316.712,302.179 318.015,302.431 319.216 C 302.684 320.417,303.134 321.677,303.431 322.016 C 303.729 322.355,304.179 323.615,304.431 324.816 C 304.684 326.017,305.138 327.283,305.442 327.628 C 305.745 327.973,306.176 329.221,306.400 330.400 C 306.624 331.579,307.074 332.839,307.400 333.200 C 307.726 333.561,308.176 334.821,308.400 336.000 C 308.624 337.179,309.082 338.449,309.419 338.821 C 309.756 339.194,310.178 340.423,310.357 341.552 C 310.535 342.682,310.972 343.927,311.327 344.319 C 311.682 344.712,312.179 346.015,312.431 347.216 C 312.684 348.417,313.140 349.684,313.445 350.031 C 313.750 350.378,314.200 351.663,314.446 352.886 C 314.998 355.638,314.810 355.592,325.400 355.590 C 334.509 355.588,334.775 355.504,335.534 352.390 C 335.828 351.186,336.303 349.930,336.589 349.600 C 336.876 349.270,337.316 348.017,337.569 346.816 C 337.821 345.615,338.271 344.355,338.569 344.016 C 338.866 343.677,339.316 342.417,339.569 341.216 C 339.821 340.015,340.290 338.743,340.610 338.389 C 340.931 338.034,341.376 336.779,341.600 335.600 C 341.824 334.421,342.274 333.161,342.600 332.800 C 342.926 332.439,343.376 331.179,343.600 330.000 C 343.824 328.821,344.274 327.561,344.600 327.200 C 344.926 326.839,345.376 325.579,345.600 324.400 C 345.824 323.221,346.255 321.973,346.558 321.628 C 346.862 321.283,347.316 320.017,347.569 318.816 C 347.821 317.615,348.271 316.355,348.569 316.016 C 348.866 315.677,349.316 314.417,349.569 313.216 C 349.821 312.015,350.290 310.743,350.610 310.389 C 350.931 310.034,351.376 308.779,351.600 307.600 C 351.824 306.421,352.274 305.161,352.600 304.800 C 352.926 304.439,353.376 303.179,353.600 302.000 C 353.824 300.821,354.274 299.561,354.600 299.200 C 354.926 298.839,355.376 297.579,355.600 296.400 C 355.824 295.221,356.274 293.961,356.600 293.600 C 356.926 293.239,357.376 291.979,357.600 290.800 C 357.824 289.621,358.255 288.373,358.558 288.028 C 358.862 287.683,359.316 286.417,359.569 285.216 C 359.821 284.015,360.290 282.743,360.610 282.389 C 360.931 282.034,361.376 280.779,361.600 279.600 C 361.824 278.421,362.274 277.161,362.600 276.800 C 362.926 276.439,363.376 275.179,363.600 274.000 C 363.824 272.821,364.275 271.559,364.602 271.197 C 364.930 270.835,365.357 269.691,365.550 268.655 C 365.744 267.619,366.212 266.429,366.590 266.011 C 367.910 264.553,367.095 264.400,358.009 264.400 C 349.071 264.400,348.000 264.506,348.000 265.394 C 348.000 265.673,347.744 266.114,347.431 266.374 C 347.118 266.634,346.746 267.601,346.603 268.523 C 346.245 270.838,345.604 272.800,345.204 272.800 C 345.021 272.800,344.752 273.565,344.607 274.500 C 344.242 276.858,343.604 278.800,343.193 278.800 C 343.004 278.800,342.735 279.655,342.596 280.700 C 342.301 282.906,341.645 284.800,341.176 284.800 C 340.996 284.800,340.733 285.655,340.591 286.700 C 340.243 289.264,340.045 289.898,339.390 290.553 C 339.083 290.860,338.651 292.235,338.430 293.609 C 338.208 294.983,337.746 296.418,337.402 296.798 C 337.058 297.178,336.607 298.529,336.400 299.800 C 336.193 301.071,335.743 302.421,335.400 302.800 C 335.057 303.179,334.607 304.529,334.400 305.800 C 334.193 307.071,333.743 308.421,333.400 308.800 C 333.057 309.179,332.607 310.529,332.400 311.800 C 332.193 313.071,331.743 314.421,331.400 314.800 C 331.057 315.179,330.607 316.529,330.400 317.800 C 330.193 319.071,329.743 320.421,329.400 320.800 C 329.057 321.179,328.604 322.548,328.393 323.843 C 327.581 328.833,324.205 330.377,323.414 326.120 C 323.259 325.284,322.877 324.315,322.565 323.967 C 322.253 323.619,321.802 322.269,321.564 320.967 C 321.325 319.665,320.871 318.311,320.555 317.958 C 320.239 317.604,319.786 316.209,319.547 314.858 C 319.309 313.506,318.976 312.400,318.806 312.400 C 318.397 312.400,317.724 310.587,317.396 308.600 C 317.251 307.720,316.877 306.715,316.565 306.367 C 316.253 306.019,315.802 304.669,315.564 303.367 C 315.325 302.065,314.877 300.717,314.568 300.372 C 314.259 300.027,313.824 298.779,313.600 297.600 C 313.376 296.421,312.919 295.153,312.585 294.783 C 312.250 294.413,311.807 293.071,311.600 291.800 C 311.393 290.529,310.950 289.187,310.615 288.817 C 310.281 288.447,309.830 287.213,309.614 286.075 C 309.398 284.936,308.949 283.588,308.615 283.079 C 308.281 282.570,307.825 281.186,307.601 280.004 C 307.377 278.823,306.919 277.553,306.585 277.183 C 306.250 276.813,305.807 275.471,305.600 274.200 C 305.393 272.929,304.950 271.587,304.615 271.217 C 304.281 270.847,303.829 269.607,303.612 268.461 C 303.145 265.999,302.657 264.984,301.778 264.647 C 300.788 264.267,282.875 264.354,282.637 264.740 M62.584 328.898 C 62.476 329.178,62.436 335.255,62.494 342.403 L 62.600 355.400 76.000 355.400 L 89.400 355.400 89.400 342.000 L 89.400 328.600 76.090 328.495 C 65.612 328.412,62.737 328.497,62.584 328.898 " stroke="none" fill="#050504" fill-rule="evenodd"></path><path id="path1" d="M0.000 200.000 L 0.000 400.000 200.000 400.000 L 400.000 400.000 400.000 200.000 L 400.000 0.000 200.000 0.000 L 0.000 0.000 0.000 200.000 M183.874 262.870 C 185.203 264.118,185.339 279.684,184.026 280.386 C 183.518 280.658,175.157 280.800,159.656 280.800 L 136.060 280.800 135.930 288.900 C 135.848 293.991,135.949 297.109,136.200 297.294 C 136.420 297.456,146.274 297.591,158.097 297.594 L 179.595 297.600 180.822 299.294 L 182.049 300.988 181.925 307.930 L 181.800 314.871 180.678 315.836 L 179.555 316.800 157.678 316.800 L 135.800 316.800 135.867 327.020 C 135.915 334.313,136.072 337.405,136.416 337.820 C 136.827 338.315,140.382 338.400,160.654 338.400 C 184.647 338.400,185.499 338.446,186.494 339.800 C 187.257 340.839,186.831 355.955,186.026 356.386 C 184.635 357.130,116.635 356.942,115.180 356.190 L 114.000 355.579 114.000 311.440 C 114.000 287.163,113.891 266.753,113.757 266.085 C 113.550 265.051,113.735 264.655,114.991 263.435 L 116.469 262.000 149.709 262.000 L 182.948 262.000 183.874 262.870 M218.090 262.547 C 218.391 262.848,219.016 263.215,219.479 263.362 C 219.942 263.508,220.430 264.065,220.564 264.597 C 220.697 265.130,221.255 266.050,221.803 266.641 C 222.352 267.233,222.800 268.044,222.800 268.444 C 222.800 268.844,223.139 269.353,223.554 269.575 C 223.969 269.797,224.430 270.467,224.580 271.063 C 224.730 271.659,225.290 272.667,225.826 273.304 C 226.362 273.940,226.800 274.678,226.800 274.942 C 226.800 275.206,227.155 275.726,227.589 276.098 C 228.023 276.469,228.502 277.274,228.654 277.887 C 228.805 278.499,229.260 279.235,229.665 279.523 C 230.069 279.810,230.400 280.280,230.400 280.568 C 230.400 280.855,230.940 281.769,231.600 282.600 C 232.260 283.431,232.800 284.347,232.800 284.637 C 232.800 284.927,233.250 285.614,233.800 286.164 C 234.350 286.714,234.800 287.601,234.800 288.135 C 234.800 288.752,235.076 289.179,235.558 289.305 C 236.006 289.422,236.427 290.012,236.589 290.751 C 236.740 291.438,237.039 292.000,237.254 292.000 C 237.469 292.000,237.995 292.791,238.422 293.757 C 238.850 294.724,239.460 295.614,239.778 295.736 C 240.096 295.858,240.477 296.602,240.624 297.390 C 240.772 298.177,241.220 298.997,241.619 299.210 C 242.019 299.424,242.473 300.004,242.628 300.500 C 242.783 300.995,243.335 301.909,243.855 302.531 C 244.375 303.153,244.800 304.001,244.800 304.417 C 244.800 304.832,245.139 305.353,245.554 305.575 C 245.969 305.797,246.430 306.467,246.580 307.063 C 246.730 307.659,247.290 308.667,247.826 309.304 C 248.362 309.940,248.800 310.674,248.800 310.934 C 248.800 311.195,249.144 311.622,249.564 311.885 C 249.984 312.147,250.450 312.918,250.600 313.598 C 250.749 314.278,251.305 315.269,251.836 315.799 C 252.366 316.330,252.803 317.087,252.806 317.482 C 252.811 318.092,252.871 318.110,253.203 317.600 C 253.448 317.225,253.593 307.259,253.591 291.000 C 253.590 276.700,253.591 264.700,253.594 264.333 C 253.616 261.758,269.922 260.680,273.027 263.047 L 274.400 264.095 274.400 309.798 C 274.400 351.798,274.346 355.547,273.739 356.051 C 273.228 356.476,270.901 356.624,263.439 356.705 C 252.850 356.820,252.104 356.689,251.400 354.584 C 251.180 353.926,250.595 352.986,250.100 352.494 C 249.605 352.002,249.200 351.370,249.200 351.089 C 249.200 350.808,248.845 350.274,248.411 349.902 C 247.977 349.531,247.498 348.726,247.346 348.113 C 247.195 347.501,246.740 346.765,246.335 346.477 C 245.931 346.190,245.600 345.720,245.600 345.432 C 245.600 345.145,245.060 344.231,244.400 343.400 C 243.740 342.569,243.200 341.653,243.200 341.363 C 243.200 341.073,242.750 340.386,242.200 339.836 C 241.650 339.286,241.200 338.399,241.200 337.865 C 241.200 337.248,240.924 336.821,240.442 336.695 C 239.994 336.578,239.573 335.988,239.411 335.249 C 239.260 334.562,238.961 334.000,238.746 334.000 C 238.531 334.000,238.005 333.209,237.578 332.243 C 237.150 331.276,236.554 330.391,236.252 330.275 C 235.950 330.159,235.578 329.567,235.425 328.959 C 235.273 328.351,234.710 327.333,234.174 326.696 C 233.638 326.060,233.200 325.372,233.200 325.169 C 233.200 324.966,232.845 324.445,232.410 324.010 C 231.976 323.576,231.502 322.751,231.358 322.177 C 231.214 321.602,230.670 320.706,230.148 320.185 C 229.627 319.663,229.200 319.029,229.200 318.776 C 229.200 318.523,228.750 317.781,228.200 317.127 C 227.650 316.473,227.200 315.691,227.200 315.387 C 227.200 315.084,226.750 314.386,226.200 313.836 C 225.650 313.286,225.200 312.475,225.200 312.032 C 225.200 311.590,224.840 311.035,224.400 310.800 C 223.960 310.565,223.600 310.133,223.600 309.841 C 223.600 309.549,223.060 308.631,222.400 307.800 C 221.740 306.969,221.200 305.964,221.200 305.565 C 221.200 305.166,220.891 304.667,220.514 304.456 C 220.137 304.245,219.611 303.471,219.345 302.736 C 218.957 301.666,218.855 306.765,218.830 328.300 C 218.801 354.646,218.784 355.216,218.000 356.000 C 216.924 357.076,201.200 357.234,199.180 356.190 L 198.000 355.579 198.000 311.440 C 198.000 287.163,197.889 266.747,197.754 266.071 C 197.542 265.009,197.717 264.651,199.054 263.423 L 200.600 262.004 209.071 262.002 C 215.707 262.000,217.661 262.119,218.090 262.547 M302.811 262.659 C 304.281 263.637,304.800 264.425,304.800 265.676 C 304.800 266.294,305.150 267.150,305.578 267.578 C 306.085 268.085,306.450 269.189,306.627 270.754 C 306.785 272.151,307.117 273.236,307.424 273.354 C 308.033 273.588,308.795 276.053,308.798 277.804 C 308.799 278.562,309.088 279.188,309.579 279.494 C 310.150 279.850,310.432 280.634,310.635 282.424 C 310.800 283.884,311.127 284.951,311.448 285.074 C 312.022 285.294,312.794 287.607,312.798 289.116 C 312.799 289.620,313.159 290.520,313.597 291.116 C 314.035 291.712,314.509 293.100,314.650 294.200 C 314.790 295.300,315.226 296.560,315.619 297.000 C 316.011 297.440,316.464 298.699,316.626 299.797 C 316.788 300.896,317.252 302.246,317.657 302.797 C 318.062 303.349,318.515 304.700,318.663 305.800 C 318.810 306.900,319.260 308.250,319.663 308.800 C 320.065 309.350,320.513 310.683,320.660 311.763 C 320.806 312.843,321.238 314.038,321.619 314.419 C 322.001 314.801,322.445 316.070,322.605 317.239 C 322.766 318.408,323.233 319.823,323.643 320.382 C 324.052 320.942,324.534 322.390,324.714 323.600 L 325.040 325.800 325.730 324.500 C 326.110 323.785,326.596 323.200,326.810 323.200 C 327.025 323.200,327.201 322.615,327.202 321.900 C 327.205 320.010,327.960 317.590,328.625 317.335 C 328.955 317.208,329.201 316.580,329.202 315.857 C 329.205 314.110,329.928 311.684,330.556 311.311 C 330.844 311.140,331.193 310.014,331.332 308.809 C 331.470 307.604,331.921 306.162,332.334 305.604 C 332.747 305.046,333.211 303.575,333.366 302.335 C 333.539 300.952,333.928 299.827,334.374 299.424 C 334.836 299.006,335.197 297.916,335.365 296.432 C 335.534 294.935,335.892 293.859,336.365 293.432 C 336.837 293.005,337.195 291.929,337.365 290.432 C 337.534 288.935,337.892 287.859,338.365 287.432 C 338.842 287.000,339.196 285.921,339.373 284.360 C 339.559 282.717,339.892 281.743,340.422 281.288 C 340.873 280.902,341.201 280.113,341.202 279.411 C 341.205 277.651,341.932 275.312,342.548 275.075 C 342.863 274.954,343.178 273.928,343.319 272.563 C 343.453 271.262,343.887 269.806,344.313 269.227 C 344.729 268.662,345.189 267.300,345.335 266.200 C 345.547 264.609,345.867 263.977,346.901 263.111 L 348.200 262.022 357.671 262.011 L 367.142 262.000 368.012 263.100 C 369.066 264.432,368.899 267.367,367.671 269.114 C 367.251 269.711,366.780 271.068,366.625 272.129 C 366.459 273.260,366.024 274.330,365.571 274.717 C 365.147 275.081,364.799 275.833,364.798 276.389 C 364.794 278.027,363.996 280.427,363.375 280.665 C 363.059 280.786,362.799 281.361,362.798 281.943 C 362.794 283.621,362.003 286.024,361.375 286.265 C 361.059 286.386,360.799 286.961,360.798 287.543 C 360.794 289.116,360.042 291.535,359.445 291.889 C 359.156 292.060,358.802 293.090,358.657 294.177 C 358.513 295.265,358.054 296.525,357.639 296.977 C 357.217 297.437,356.759 298.737,356.601 299.922 C 356.444 301.105,356.007 302.345,355.616 302.722 C 355.229 303.095,354.796 304.290,354.654 305.377 C 354.506 306.504,354.051 307.720,353.597 308.203 C 353.159 308.670,352.800 309.508,352.800 310.066 C 352.800 311.396,352.027 313.694,351.409 314.200 C 351.141 314.420,350.794 315.442,350.640 316.472 C 350.486 317.501,350.036 318.761,349.641 319.272 C 349.245 319.782,348.803 321.090,348.658 322.177 C 348.513 323.265,348.054 324.525,347.639 324.977 C 347.219 325.435,346.759 326.734,346.604 327.904 C 346.431 329.199,346.056 330.199,345.626 330.504 C 345.206 330.803,344.822 331.796,344.661 333.000 C 344.514 334.100,344.062 335.451,343.657 336.003 C 343.252 336.554,342.794 337.846,342.640 338.874 C 342.486 339.903,342.034 341.161,341.636 341.672 C 341.238 342.182,340.788 343.442,340.636 344.472 C 340.484 345.501,340.034 346.761,339.636 347.272 C 339.238 347.782,338.788 349.042,338.636 350.072 C 338.484 351.101,338.009 352.390,337.580 352.935 C 337.151 353.480,336.800 354.290,336.800 354.735 C 336.800 356.713,336.304 356.800,325.000 356.800 C 313.900 356.800,313.200 356.689,313.200 354.933 C 313.200 354.598,312.839 353.816,312.397 353.196 C 311.955 352.576,311.475 351.203,311.331 350.146 C 311.186 349.089,310.757 347.891,310.378 347.484 C 309.683 346.738,309.200 345.062,309.200 343.393 C 309.200 342.894,308.941 342.386,308.625 342.265 C 308.010 342.029,307.206 339.632,307.202 338.026 C 307.201 337.490,306.841 336.670,306.403 336.203 C 305.947 335.718,305.497 334.509,305.350 333.377 C 305.210 332.290,304.767 331.038,304.367 330.596 C 303.967 330.153,303.515 328.983,303.362 327.996 C 303.210 327.008,302.749 325.720,302.339 325.134 C 301.929 324.548,301.475 323.203,301.331 322.146 C 301.186 321.089,300.757 319.891,300.378 319.484 C 299.683 318.738,299.200 317.062,299.200 315.393 C 299.200 314.894,298.941 314.386,298.625 314.265 C 297.988 314.020,297.206 311.614,297.202 309.887 C 297.201 309.276,296.934 308.673,296.608 308.548 C 295.967 308.302,295.206 306.035,295.202 304.362 C 295.201 303.791,294.848 303.005,294.418 302.616 C 293.974 302.214,293.518 301.105,293.364 300.054 C 293.215 299.034,292.763 297.731,292.360 297.158 C 291.957 296.585,291.502 295.325,291.349 294.358 C 291.195 293.391,290.741 292.150,290.338 291.600 C 289.936 291.050,289.488 289.700,289.343 288.600 C 289.198 287.500,288.844 286.460,288.555 286.289 C 287.958 285.935,287.206 283.516,287.202 281.943 C 287.201 281.361,286.941 280.786,286.625 280.665 C 286.004 280.427,285.206 278.027,285.202 276.389 C 285.201 275.833,284.853 275.081,284.429 274.717 C 283.976 274.330,283.541 273.260,283.375 272.129 C 283.220 271.068,282.749 269.711,282.329 269.114 C 281.054 267.301,280.893 264.179,282.012 262.987 L 282.939 262.000 292.381 262.000 C 300.479 262.000,301.963 262.094,302.811 262.659 M90.320 327.680 C 91.008 328.368,91.008 355.632,90.320 356.320 C 89.632 357.008,62.368 357.008,61.680 356.320 C 60.992 355.632,60.992 328.368,61.680 327.680 C 62.035 327.325,65.769 327.200,76.000 327.200 C 86.231 327.200,89.965 327.325,90.320 327.680 " stroke="none" fill="#ebd33c" fill-rule="evenodd"></path><path id="path2" d="M114.991 263.435 C 113.735 264.655,113.550 265.051,113.757 266.085 C 113.891 266.753,114.000 287.163,114.000 311.440 L 114.000 355.579 115.180 356.190 C 116.635 356.942,184.635 357.130,186.026 356.386 C 186.831 355.955,187.257 340.839,186.494 339.800 C 185.499 338.446,184.647 338.400,160.654 338.400 C 140.382 338.400,136.827 338.315,136.416 337.820 C 136.072 337.405,135.915 334.313,135.867 327.020 L 135.800 316.800 157.678 316.800 L 179.555 316.800 180.678 315.836 L 181.800 314.871 181.925 307.930 L 182.049 300.988 180.822 299.294 L 179.595 297.600 158.097 297.594 C 146.274 297.591,136.420 297.456,136.200 297.294 C 135.949 297.109,135.848 293.991,135.930 288.900 L 136.060 280.800 159.656 280.800 C 175.157 280.800,183.518 280.658,184.026 280.386 C 185.339 279.684,185.203 264.118,183.874 262.870 L 182.948 262.000 149.709 262.000 L 116.469 262.000 114.991 263.435 M199.054 263.423 C 197.717 264.651,197.542 265.009,197.754 266.071 C 197.889 266.747,198.000 287.163,198.000 311.440 L 198.000 355.579 199.180 356.190 C 201.200 357.234,216.924 357.076,218.000 356.000 C 218.784 355.216,218.801 354.646,218.830 328.300 C 218.855 306.765,218.957 301.666,219.345 302.736 C 219.611 303.471,220.137 304.245,220.514 304.456 C 220.891 304.667,221.200 305.166,221.200 305.565 C 221.200 305.964,221.740 306.969,222.400 307.800 C 223.060 308.631,223.600 309.549,223.600 309.841 C 223.600 310.133,223.960 310.565,224.400 310.800 C 224.840 311.035,225.200 311.590,225.200 312.032 C 225.200 312.475,225.650 313.286,226.200 313.836 C 226.750 314.386,227.200 315.084,227.200 315.387 C 227.200 315.691,227.650 316.473,228.200 317.127 C 228.750 317.781,229.200 318.523,229.200 318.776 C 229.200 319.029,229.627 319.663,230.148 320.185 C 230.670 320.706,231.214 321.602,231.358 322.177 C 231.502 322.751,231.976 323.576,232.410 324.010 C 232.845 324.445,233.200 324.966,233.200 325.169 C 233.200 325.372,233.638 326.060,234.174 326.696 C 234.710 327.333,235.273 328.351,235.425 328.959 C 235.578 329.567,235.950 330.159,236.252 330.275 C 236.554 330.391,237.150 331.276,237.578 332.243 C 238.005 333.209,238.519 334.000,238.720 334.000 C 238.920 334.000,239.252 334.584,239.456 335.297 C 239.661 336.012,240.140 336.655,240.523 336.728 C 241.106 336.840,241.055 336.622,240.209 335.375 C 239.654 334.557,239.200 333.643,239.200 333.344 C 239.200 333.045,239.016 332.800,238.791 332.800 C 238.567 332.800,238.169 332.305,237.907 331.700 C 237.645 331.095,237.019 330.091,236.515 329.469 C 236.012 328.847,235.490 327.902,235.357 327.369 C 235.223 326.836,234.956 326.400,234.765 326.400 C 234.573 326.400,234.008 325.665,233.508 324.766 C 233.009 323.867,232.302 322.594,231.937 321.938 C 231.572 321.282,230.994 320.436,230.652 320.058 C 230.310 319.680,229.751 318.702,229.410 317.885 C 229.069 317.068,228.626 316.400,228.426 316.400 C 228.226 316.400,227.854 315.770,227.600 315.000 C 227.346 314.230,226.992 313.600,226.813 313.600 C 226.634 313.600,226.107 312.790,225.642 311.800 C 225.177 310.810,224.617 310.000,224.398 310.000 C 224.179 310.000,223.999 309.775,223.999 309.500 C 223.998 309.225,223.593 308.381,223.099 307.624 C 221.346 304.939,220.418 303.380,219.637 301.808 C 218.423 299.366,218.418 299.471,218.305 328.332 C 218.203 354.467,218.177 355.282,217.424 355.832 C 216.184 356.739,200.310 356.655,199.549 355.739 C 198.666 354.675,198.520 265.487,199.399 264.145 L 200.018 263.200 209.155 263.200 C 218.760 263.200,220.400 263.517,220.400 265.375 C 220.400 265.659,220.799 266.399,221.287 267.019 C 222.173 268.146,222.903 269.364,224.273 272.000 C 224.673 272.770,225.219 273.580,225.487 273.800 C 225.755 274.020,226.252 274.875,226.592 275.700 C 226.932 276.525,227.374 277.200,227.574 277.200 C 227.774 277.200,228.146 277.830,228.400 278.600 C 228.654 279.370,229.034 280.000,229.245 280.000 C 229.456 280.000,229.957 280.768,230.360 281.706 C 230.762 282.644,231.385 283.656,231.745 283.955 C 232.105 284.253,232.400 284.732,232.400 285.018 C 232.400 285.304,232.850 286.073,233.400 286.727 C 233.950 287.381,234.400 288.177,234.400 288.496 C 234.400 288.815,234.744 289.387,235.163 289.767 C 235.583 290.147,236.161 291.022,236.446 291.712 C 236.732 292.401,237.210 293.243,237.508 293.583 C 238.462 294.669,240.099 297.364,240.495 298.500 C 240.706 299.105,241.047 299.600,241.253 299.600 C 241.460 299.600,241.957 300.368,242.360 301.306 C 242.762 302.244,243.385 303.256,243.745 303.555 C 244.105 303.853,244.400 304.318,244.400 304.588 C 244.400 304.857,244.776 305.510,245.235 306.039 C 245.695 306.567,246.325 307.540,246.637 308.200 C 246.948 308.860,247.741 310.210,248.400 311.200 C 249.059 312.190,249.858 313.554,250.176 314.232 C 250.494 314.909,251.025 315.689,251.356 315.964 C 251.688 316.239,252.162 317.080,252.411 317.832 C 253.848 322.189,253.989 319.808,253.995 290.923 L 254.000 264.445 254.889 263.823 C 256.353 262.798,272.012 262.908,272.955 263.950 C 273.585 264.646,273.632 267.934,273.617 309.850 L 273.600 355.000 272.755 355.700 C 272.008 356.320,270.907 356.400,263.175 356.400 C 253.379 356.400,252.751 356.265,251.724 353.936 C 251.351 353.091,250.894 352.400,250.709 352.400 C 250.523 352.400,250.024 351.590,249.600 350.600 C 249.176 349.610,248.656 348.800,248.445 348.800 C 248.234 348.800,247.854 348.170,247.600 347.400 C 247.346 346.630,246.992 346.000,246.815 346.000 C 246.637 346.000,246.172 345.325,245.781 344.500 C 245.391 343.675,244.766 342.550,244.393 342.000 C 243.193 340.230,242.212 338.715,241.706 337.847 L 241.212 337.000 241.206 337.918 C 241.203 338.423,241.650 339.286,242.200 339.836 C 242.750 340.386,243.200 341.073,243.200 341.363 C 243.200 341.653,243.740 342.569,244.400 343.400 C 245.060 344.231,245.600 345.145,245.600 345.432 C 245.600 345.720,245.931 346.190,246.335 346.477 C 246.740 346.765,247.195 347.501,247.346 348.113 C 247.498 348.726,247.977 349.531,248.411 349.902 C 248.845 350.274,249.200 350.808,249.200 351.089 C 249.200 351.370,249.605 352.002,250.100 352.494 C 250.595 352.986,251.180 353.926,251.400 354.584 C 252.104 356.689,252.850 356.820,263.439 356.705 C 270.901 356.624,273.228 356.476,273.739 356.051 C 274.346 355.547,274.400 351.798,274.400 309.798 L 274.400 264.095 273.027 263.047 C 269.922 260.680,253.616 261.758,253.594 264.333 C 253.591 264.700,253.590 276.700,253.591 291.000 C 253.593 307.259,253.448 317.225,253.203 317.600 C 252.871 318.110,252.811 318.092,252.806 317.482 C 252.803 317.087,252.366 316.330,251.836 315.799 C 251.305 315.269,250.749 314.278,250.600 313.598 C 250.450 312.918,249.984 312.147,249.564 311.885 C 249.144 311.622,248.800 311.195,248.800 310.934 C 248.800 310.674,248.362 309.940,247.826 309.304 C 247.290 308.667,246.730 307.659,246.580 307.063 C 246.430 306.467,245.969 305.797,245.554 305.575 C 245.139 305.353,244.800 304.832,244.800 304.417 C 244.800 304.001,244.375 303.153,243.855 302.531 C 243.335 301.909,242.783 300.995,242.628 300.500 C 242.473 300.004,242.019 299.424,241.619 299.210 C 241.220 298.997,240.772 298.177,240.624 297.390 C 240.477 296.602,240.096 295.858,239.778 295.736 C 239.460 295.614,238.850 294.724,238.422 293.757 C 237.995 292.791,237.469 292.000,237.254 292.000 C 237.039 292.000,236.740 291.438,236.589 290.751 C 236.427 290.012,236.006 289.422,235.558 289.305 C 235.076 289.179,234.800 288.752,234.800 288.135 C 234.800 287.601,234.350 286.714,233.800 286.164 C 233.250 285.614,232.800 284.927,232.800 284.637 C 232.800 284.347,232.260 283.431,231.600 282.600 C 230.940 281.769,230.400 280.855,230.400 280.568 C 230.400 280.280,230.069 279.810,229.665 279.523 C 229.260 279.235,228.805 278.499,228.654 277.887 C 228.502 277.274,228.023 276.469,227.589 276.098 C 227.155 275.726,226.800 275.206,226.800 274.942 C 226.800 274.678,226.362 273.940,225.826 273.304 C 225.290 272.667,224.730 271.659,224.580 271.063 C 224.430 270.467,223.969 269.797,223.554 269.575 C 223.139 269.353,222.800 268.844,222.800 268.444 C 222.800 268.044,222.352 267.233,221.803 266.641 C 221.255 266.050,220.697 265.130,220.564 264.597 C 220.430 264.065,219.942 263.508,219.479 263.362 C 219.016 263.215,218.391 262.848,218.090 262.547 C 217.661 262.119,215.707 262.000,209.071 262.002 L 200.600 262.004 199.054 263.423 M282.012 262.987 C 280.893 264.179,281.054 267.301,282.329 269.114 C 282.749 269.711,283.217 271.053,283.370 272.095 C 283.523 273.138,283.944 274.287,284.306 274.649 C 285.182 275.524,285.428 274.723,284.651 273.524 C 284.322 273.016,283.829 271.700,283.556 270.600 C 283.283 269.500,282.732 268.060,282.331 267.400 C 281.494 266.021,281.383 264.377,282.080 263.680 C 282.428 263.332,285.342 263.200,292.680 263.200 C 303.887 263.200,304.383 263.314,304.413 265.900 C 304.419 266.505,304.868 267.900,305.409 269.000 C 305.950 270.100,306.394 271.435,306.396 271.967 C 306.398 272.498,306.508 272.825,306.641 272.692 C 307.125 272.208,306.299 268.299,305.556 267.556 C 305.140 267.140,304.800 266.294,304.800 265.676 C 304.800 262.439,303.319 262.000,292.381 262.000 L 282.939 262.000 282.012 262.987 M346.901 263.111 C 345.867 263.977,345.547 264.609,345.335 266.200 C 345.189 267.300,344.735 268.654,344.326 269.209 C 343.912 269.773,343.496 271.186,343.384 272.409 L 343.185 274.600 343.725 272.722 C 344.022 271.690,344.456 270.610,344.689 270.322 C 344.922 270.035,345.331 268.739,345.597 267.441 C 345.898 265.973,346.439 264.725,347.029 264.134 L 347.978 263.186 357.879 263.293 L 367.781 263.400 368.177 264.525 C 368.493 265.425,368.399 265.985,367.708 267.325 C 367.233 268.246,366.639 269.810,366.389 270.800 C 366.139 271.790,365.668 273.016,365.342 273.524 C 364.572 274.726,364.821 275.522,365.694 274.649 C 366.056 274.287,366.477 273.138,366.630 272.095 C 366.783 271.053,367.251 269.711,367.671 269.114 C 368.899 267.367,369.066 264.432,368.012 263.100 L 367.142 262.000 357.671 262.011 L 348.200 262.022 346.901 263.111 M183.920 263.680 C 184.841 264.601,184.573 279.479,183.626 279.986 C 183.119 280.257,174.892 280.402,159.726 280.405 C 147.007 280.408,136.195 280.519,135.700 280.652 C 134.327 281.020,134.277 297.292,135.647 298.025 C 136.252 298.349,142.563 298.462,157.702 298.421 L 178.909 298.363 179.854 299.251 C 181.290 300.599,181.338 314.778,179.911 315.777 C 179.133 316.322,176.336 316.400,157.544 316.400 C 145.731 316.400,135.781 316.509,135.433 316.643 C 134.454 317.018,134.482 337.385,135.462 338.469 C 136.090 339.162,137.397 339.200,160.633 339.200 C 182.381 339.200,185.214 339.271,185.771 339.829 C 186.584 340.641,186.718 355.122,185.920 355.920 C 185.066 356.774,116.261 356.597,115.549 355.739 C 114.667 354.677,114.523 265.482,115.401 264.143 L 116.018 263.200 149.729 263.200 C 175.415 263.200,183.554 263.314,183.920 263.680 M306.800 273.478 C 306.800 273.667,307.051 274.181,307.358 274.619 C 307.665 275.057,308.096 276.222,308.315 277.208 C 308.702 278.946,308.715 278.958,308.735 277.600 C 308.760 275.875,307.973 273.517,307.300 273.297 C 307.025 273.207,306.800 273.288,306.800 273.478 M342.493 275.141 C 341.863 275.532,341.191 277.793,341.227 279.397 C 341.250 280.413,341.333 280.308,341.759 278.722 C 342.038 277.690,342.492 276.571,342.770 276.236 C 343.389 275.490,343.191 274.707,342.493 275.141 M285.388 277.316 C 285.604 279.370,286.189 280.800,286.814 280.800 C 287.319 280.800,287.313 279.717,286.806 279.404 C 286.590 279.270,286.137 278.315,285.799 277.280 L 285.186 275.400 285.388 277.316 M364.396 276.233 C 364.394 276.655,363.950 277.900,363.409 279.000 C 362.868 280.100,362.418 281.360,362.409 281.800 C 362.400 282.240,361.950 283.500,361.409 284.600 C 360.868 285.700,360.419 286.948,360.413 287.374 C 360.406 287.799,360.019 288.934,359.554 289.895 C 358.728 291.600,358.730 292.338,359.559 291.826 C 360.063 291.514,360.795 288.984,360.798 287.543 C 360.799 286.961,361.059 286.386,361.375 286.265 C 361.977 286.034,362.794 283.643,362.798 282.100 C 362.799 281.605,363.147 280.853,363.571 280.429 C 364.334 279.666,365.127 276.194,364.648 275.715 C 364.512 275.578,364.398 275.812,364.396 276.233 M308.800 279.520 C 308.800 279.696,309.005 280.045,309.256 280.296 C 309.506 280.546,309.959 281.617,310.262 282.676 L 310.812 284.600 310.580 282.410 C 310.355 280.285,309.872 279.200,309.151 279.200 C 308.958 279.200,308.800 279.344,308.800 279.520 M340.287 281.371 C 339.659 281.998,338.930 285.864,339.359 286.292 C 339.492 286.425,339.600 286.110,339.600 285.593 C 339.600 285.076,339.981 283.866,340.446 282.905 C 341.349 281.039,341.281 280.377,340.287 281.371 M287.388 282.916 C 287.604 284.970,288.189 286.400,288.814 286.400 C 289.319 286.400,289.313 285.317,288.806 285.004 C 288.590 284.870,288.137 283.915,287.799 282.880 L 287.186 281.000 287.388 282.916 M310.813 285.313 C 310.820 285.581,311.082 286.139,311.395 286.553 C 311.709 286.967,312.172 288.317,312.426 289.553 C 312.679 290.789,313.065 292.019,313.282 292.287 C 313.499 292.555,313.933 293.545,314.247 294.487 L 314.816 296.200 314.605 294.200 C 314.489 293.100,314.035 291.712,313.597 291.116 C 313.159 290.520,312.799 289.620,312.798 289.116 C 312.794 287.550,312.013 285.290,311.392 285.052 C 311.066 284.927,310.806 285.044,310.813 285.313 M289.409 288.600 C 289.518 289.700,289.936 291.050,290.338 291.600 C 290.741 292.150,291.195 293.391,291.349 294.358 C 291.502 295.325,291.957 296.585,292.360 297.158 C 292.763 297.731,293.215 299.034,293.364 300.054 C 293.632 301.888,295.200 304.135,295.200 302.686 C 295.200 302.334,295.022 301.937,294.805 301.803 C 294.588 301.669,294.128 300.533,293.782 299.280 C 293.436 298.026,292.825 296.370,292.425 295.600 C 292.025 294.830,291.571 293.480,291.415 292.600 C 291.260 291.720,290.882 290.721,290.577 290.380 C 290.271 290.039,289.839 289.049,289.616 288.180 C 289.213 286.605,289.213 286.606,289.409 288.600 M338.317 287.471 C 337.952 287.874,337.549 289.193,337.421 290.402 L 337.188 292.600 337.727 290.722 C 338.023 289.690,338.492 288.571,338.770 288.236 C 339.531 287.320,339.104 286.601,338.317 287.471 M358.400 293.218 C 358.400 293.668,357.950 294.882,357.400 295.915 C 356.850 296.948,356.400 298.143,356.400 298.571 C 356.400 298.998,356.019 300.134,355.554 301.095 C 354.651 302.961,354.719 303.623,355.713 302.629 C 356.048 302.295,356.448 301.071,356.603 299.910 C 356.759 298.735,357.218 297.435,357.639 296.977 C 358.354 296.199,359.197 292.400,358.654 292.400 C 358.514 292.400,358.400 292.768,358.400 293.218 M336.317 293.471 C 335.952 293.874,335.553 295.193,335.430 296.402 L 335.206 298.600 335.765 296.687 C 336.072 295.635,336.538 294.516,336.800 294.200 C 337.540 293.308,337.085 292.622,336.317 293.471 M314.813 296.838 C 314.820 297.147,315.082 297.739,315.395 298.153 C 315.709 298.567,316.161 299.850,316.401 301.004 C 316.640 302.158,317.188 303.792,317.618 304.636 C 318.048 305.479,318.401 306.536,318.402 306.985 C 318.404 307.433,318.701 308.340,319.063 309.000 C 319.425 309.660,319.967 311.010,320.268 312.000 L 320.815 313.800 320.604 311.800 C 320.489 310.700,320.065 309.350,319.663 308.800 C 319.260 308.250,318.810 306.900,318.663 305.800 C 318.515 304.700,318.057 303.342,317.646 302.782 C 317.234 302.223,316.771 300.842,316.616 299.714 C 316.356 297.827,314.778 295.310,314.813 296.838 M334.317 299.471 C 333.952 299.874,333.523 301.193,333.363 302.402 C 333.203 303.611,332.738 305.054,332.328 305.609 C 331.904 306.185,331.504 307.560,331.398 308.809 C 331.227 310.832,331.242 310.884,331.603 309.487 C 331.817 308.655,332.264 307.449,332.596 306.807 C 332.928 306.165,333.398 304.686,333.640 303.520 C 333.882 302.354,334.343 300.984,334.665 300.476 C 335.429 299.269,335.171 298.527,334.317 299.471 M295.229 304.400 C 295.190 305.984,295.960 308.299,296.608 308.548 C 296.934 308.673,297.201 309.276,297.202 309.887 C 297.205 311.375,297.929 313.909,298.441 314.226 C 299.270 314.738,299.272 314.000,298.446 312.295 C 297.981 311.334,297.599 310.199,297.598 309.774 C 297.596 309.348,297.303 308.460,296.946 307.800 C 296.589 307.140,296.062 305.880,295.775 305.000 C 295.364 303.739,295.248 303.612,295.229 304.400 M354.396 304.233 C 354.394 304.655,353.950 305.900,353.409 307.000 C 352.868 308.100,352.418 309.360,352.409 309.800 C 352.400 310.240,351.950 311.500,351.409 312.600 C 350.868 313.700,350.418 314.960,350.409 315.400 C 350.400 315.840,349.950 317.100,349.409 318.200 C 348.868 319.300,348.418 320.560,348.409 321.000 C 348.400 321.440,347.950 322.700,347.409 323.800 C 346.868 324.900,346.419 326.167,346.413 326.615 C 346.406 327.064,346.043 328.132,345.606 328.988 C 344.759 330.649,344.818 331.215,345.756 330.437 C 346.072 330.174,346.455 329.024,346.607 327.880 C 346.760 326.731,347.222 325.432,347.639 324.977 C 348.054 324.525,348.513 323.265,348.658 322.177 C 348.803 321.090,349.245 319.782,349.641 319.272 C 350.036 318.761,350.486 317.501,350.640 316.472 C 350.794 315.442,351.141 314.420,351.409 314.200 C 352.039 313.685,352.800 311.387,352.800 310.002 C 352.800 309.409,353.152 308.605,353.582 308.216 C 354.350 307.521,355.136 304.203,354.648 303.715 C 354.512 303.578,354.398 303.812,354.396 304.233 M329.994 312.011 C 329.755 312.458,329.475 313.763,329.372 314.911 L 329.185 317.000 329.737 315.076 C 330.040 314.017,330.494 312.946,330.744 312.696 C 331.300 312.140,331.344 311.200,330.814 311.200 C 330.602 311.200,330.233 311.565,329.994 312.011 M320.813 314.500 C 320.820 314.775,321.082 315.339,321.395 315.753 C 321.709 316.167,322.175 317.517,322.431 318.753 C 322.687 319.989,323.143 321.353,323.445 321.784 C 323.746 322.215,324.197 323.606,324.447 324.875 L 324.900 327.181 326.050 325.594 C 326.683 324.721,327.200 323.825,327.200 323.603 C 327.200 322.760,326.393 323.252,325.730 324.500 L 325.040 325.800 324.714 323.600 C 324.534 322.390,324.057 320.949,323.654 320.397 C 323.250 319.846,322.785 318.496,322.621 317.397 C 322.226 314.764,320.760 312.414,320.813 314.500 M299.227 315.450 C 299.178 316.985,299.677 318.732,300.378 319.484 C 300.757 319.891,301.186 321.089,301.331 322.146 C 301.475 323.203,301.931 324.548,302.343 325.134 C 302.755 325.720,303.215 327.034,303.364 328.054 C 303.632 329.888,305.200 332.135,305.200 330.686 C 305.200 330.334,305.022 329.937,304.805 329.803 C 304.588 329.669,304.122 328.533,303.769 327.280 C 303.416 326.026,302.783 324.268,302.363 323.374 C 301.944 322.479,301.599 321.399,301.598 320.974 C 301.596 320.548,301.303 319.660,300.946 319.000 C 300.589 318.340,300.062 317.080,299.775 316.200 C 299.451 315.206,299.243 314.922,299.227 315.450 M327.994 318.011 C 327.755 318.458,327.475 319.763,327.372 320.911 L 327.185 323.000 327.737 321.076 C 328.040 320.017,328.494 318.946,328.744 318.696 C 329.300 318.140,329.344 317.200,328.814 317.200 C 328.602 317.200,328.233 317.565,327.994 318.011 M61.680 327.680 C 60.992 328.368,60.992 355.632,61.680 356.320 C 62.368 357.008,89.632 357.008,90.320 356.320 C 91.008 355.632,91.008 328.368,90.320 327.680 C 89.965 327.325,86.231 327.200,76.000 327.200 C 65.769 327.200,62.035 327.325,61.680 327.680 M89.920 328.080 C 90.607 328.767,90.607 355.233,89.920 355.920 C 89.233 356.607,62.767 356.607,62.080 355.920 C 61.393 355.233,61.393 328.767,62.080 328.080 C 62.434 327.726,66.080 327.600,76.000 327.600 C 85.920 327.600,89.566 327.726,89.920 328.080 M344.387 332.033 C 344.381 332.565,343.932 333.900,343.391 335.000 C 342.850 336.100,342.404 337.360,342.400 337.800 C 342.396 338.240,341.950 339.500,341.409 340.600 C 340.868 341.700,340.418 342.960,340.409 343.400 C 340.400 343.840,339.950 345.100,339.409 346.200 C 338.868 347.300,338.418 348.560,338.409 349.000 C 338.400 349.440,337.950 350.700,337.409 351.800 C 336.868 352.900,336.419 354.087,336.413 354.438 C 336.377 356.254,335.519 356.400,324.897 356.400 C 313.931 356.400,313.927 356.399,313.409 354.043 C 313.269 353.402,312.804 352.192,312.377 351.354 C 311.950 350.516,311.594 349.464,311.587 349.015 C 311.581 348.567,311.132 347.300,310.591 346.200 C 310.050 345.100,309.606 343.855,309.604 343.433 C 309.602 343.012,309.488 342.778,309.352 342.915 C 308.896 343.371,309.622 346.673,310.349 347.453 C 310.744 347.877,311.186 349.089,311.331 350.146 C 311.475 351.203,311.955 352.576,312.397 353.196 C 312.839 353.816,313.200 354.598,313.200 354.933 C 313.200 356.689,313.900 356.800,325.000 356.800 C 336.304 356.800,336.800 356.713,336.800 354.735 C 336.800 354.290,337.151 353.480,337.580 352.935 C 338.009 352.390,338.484 351.101,338.636 350.072 C 338.788 349.042,339.238 347.782,339.636 347.272 C 340.034 346.761,340.484 345.501,340.636 344.472 C 340.788 343.442,341.238 342.182,341.636 341.672 C 342.034 341.161,342.484 339.901,342.636 338.872 C 342.788 337.842,343.238 336.582,343.636 336.072 C 344.378 335.120,345.093 331.760,344.648 331.315 C 344.512 331.178,344.394 331.502,344.387 332.033 M305.395 333.377 C 305.522 334.567,305.924 335.693,306.403 336.203 C 306.841 336.670,307.201 337.490,307.202 338.026 C 307.205 339.397,307.950 341.922,308.441 342.226 C 309.270 342.738,309.272 342.000,308.446 340.295 C 307.981 339.334,307.599 338.199,307.598 337.774 C 307.596 337.348,307.303 336.460,306.946 335.800 C 306.589 335.140,306.046 333.880,305.740 333.000 L 305.184 331.400 305.395 333.377 " stroke="none" fill="#b6b236" fill-rule="evenodd"></path><path id="path3" d="M116.080 264.080 C 115.383 264.777,115.383 354.823,116.080 355.520 C 116.776 356.216,184.824 356.216,185.520 355.520 C 186.196 354.844,186.196 340.756,185.520 340.080 C 185.157 339.717,179.020 339.600,160.349 339.600 C 138.332 339.600,135.588 339.531,135.022 338.965 C 134.468 338.411,134.401 336.932,134.494 327.283 L 134.600 316.236 135.600 315.958 C 136.150 315.805,146.279 315.662,158.110 315.640 L 179.620 315.600 180.010 314.574 C 180.786 312.532,180.501 300.615,179.657 299.852 C 178.981 299.240,177.041 299.182,157.957 299.200 C 146.431 299.211,136.698 299.216,136.329 299.210 C 134.550 299.183,134.400 298.418,134.400 289.386 C 134.400 281.334,134.446 280.804,135.174 280.414 C 135.682 280.142,144.028 280.000,159.494 280.000 C 177.274 280.000,183.158 279.882,183.520 279.520 C 184.196 278.844,184.196 264.756,183.520 264.080 C 182.825 263.385,116.775 263.385,116.080 264.080 M200.080 264.080 C 199.383 264.777,199.383 354.823,200.080 355.520 C 200.698 356.138,215.685 356.197,216.826 355.586 C 217.580 355.183,217.600 354.455,217.600 328.035 C 217.600 303.336,217.659 300.849,218.258 300.352 C 218.824 299.882,218.978 299.910,219.358 300.551 C 219.601 300.960,220.292 302.039,220.893 302.948 C 221.494 303.857,221.989 304.803,221.993 305.051 C 221.997 305.299,222.298 305.749,222.662 306.051 C 223.026 306.353,223.573 307.140,223.877 307.800 C 224.181 308.460,224.957 309.810,225.601 310.800 C 226.246 311.790,227.163 313.320,227.640 314.200 C 228.117 315.080,228.639 315.890,228.800 316.000 C 228.961 316.110,229.489 316.920,229.973 317.800 C 230.987 319.643,232.267 321.771,233.364 323.439 C 234.097 324.552,234.907 325.838,236.931 329.100 C 238.828 332.158,240.145 334.229,240.863 335.284 C 241.268 335.880,241.600 336.530,241.600 336.729 C 241.600 336.927,242.140 337.769,242.800 338.600 C 243.460 339.431,244.000 340.327,244.000 340.593 C 244.000 340.859,244.360 341.402,244.800 341.800 C 245.240 342.198,245.603 342.721,245.607 342.962 C 245.611 343.203,246.106 344.159,246.707 345.086 C 247.308 346.013,248.320 347.633,248.956 348.686 C 251.108 352.247,252.154 353.796,253.154 354.900 L 254.150 356.000 263.026 356.000 C 269.948 356.000,272.000 355.882,272.346 355.465 C 273.191 354.447,272.983 264.723,272.134 264.102 C 271.161 263.391,256.439 263.391,255.465 264.103 C 254.827 264.570,254.779 266.537,254.794 291.755 C 254.806 311.455,254.686 319.055,254.356 319.452 C 253.568 320.402,252.864 320.055,252.019 318.300 C 251.569 317.365,250.664 315.790,250.007 314.800 C 249.350 313.810,248.592 312.550,248.322 312.000 C 248.052 311.450,247.419 310.491,246.916 309.869 C 246.412 309.247,246.000 308.560,246.000 308.343 C 246.000 308.125,245.550 307.357,245.000 306.636 C 244.450 305.914,244.000 305.139,244.000 304.911 C 244.000 304.684,243.728 304.272,243.395 303.996 C 243.063 303.720,242.433 302.753,241.996 301.847 C 241.559 300.941,240.667 299.390,240.014 298.400 C 239.361 297.410,238.455 295.970,238.000 295.200 C 237.545 294.430,236.642 292.990,235.993 292.000 C 235.344 291.010,234.592 289.750,234.322 289.200 C 234.052 288.650,233.419 287.691,232.916 287.069 C 232.412 286.447,232.000 285.742,232.000 285.501 C 232.000 285.260,231.713 284.746,231.363 284.359 C 230.747 283.679,230.505 283.278,228.446 279.534 C 227.922 278.580,227.361 277.710,227.200 277.600 C 227.039 277.490,226.517 276.680,226.040 275.800 C 225.563 274.920,224.642 273.390,223.993 272.400 C 223.344 271.410,222.592 270.150,222.322 269.600 C 222.052 269.050,221.419 268.091,220.916 267.469 C 220.412 266.847,220.000 266.095,220.000 265.798 C 220.000 263.777,201.940 262.220,200.080 264.080 M282.499 264.061 C 281.810 264.750,281.873 265.494,282.746 266.953 C 283.157 267.639,283.703 269.072,283.961 270.137 C 284.219 271.203,284.671 272.463,284.965 272.937 C 285.259 273.412,285.716 274.698,285.980 275.795 C 286.243 276.892,286.630 277.995,286.839 278.247 C 287.048 278.499,287.484 279.721,287.807 280.963 C 288.131 282.205,288.646 283.621,288.953 284.110 C 289.259 284.600,289.634 285.720,289.784 286.600 C 289.935 287.480,290.373 288.740,290.757 289.400 C 291.141 290.060,291.674 291.472,291.943 292.537 C 292.211 293.603,292.671 294.863,292.965 295.337 C 293.259 295.812,293.709 297.072,293.965 298.137 C 294.221 299.203,294.671 300.463,294.965 300.937 C 295.259 301.412,295.709 302.672,295.965 303.737 C 296.221 304.803,296.671 306.063,296.965 306.537 C 297.259 307.012,297.716 308.298,297.980 309.395 C 298.243 310.492,298.630 311.595,298.839 311.847 C 299.048 312.099,299.484 313.321,299.807 314.563 C 300.131 315.805,300.644 317.221,300.948 317.710 C 301.251 318.200,301.709 319.472,301.965 320.537 C 302.221 321.603,302.671 322.863,302.965 323.337 C 303.259 323.812,303.709 325.072,303.965 326.137 C 304.221 327.203,304.671 328.463,304.965 328.937 C 305.259 329.412,305.709 330.672,305.965 331.737 C 306.221 332.803,306.671 334.063,306.965 334.537 C 307.259 335.012,307.716 336.298,307.980 337.395 C 308.243 338.492,308.630 339.595,308.839 339.847 C 309.048 340.099,309.484 341.321,309.807 342.563 C 310.131 343.805,310.644 345.221,310.948 345.710 C 311.251 346.200,311.709 347.472,311.965 348.537 C 312.221 349.603,312.676 350.863,312.976 351.337 C 313.276 351.812,313.650 352.830,313.807 353.600 C 314.310 356.066,314.009 356.001,324.749 355.994 C 330.167 355.991,334.808 355.856,335.062 355.694 C 335.491 355.421,336.418 353.134,337.858 348.800 C 338.186 347.810,338.803 346.230,339.228 345.289 C 339.652 344.348,340.000 343.291,340.000 342.939 C 340.000 342.588,340.433 341.288,340.963 340.050 C 341.492 338.813,342.227 336.900,342.596 335.800 C 342.964 334.700,343.535 332.990,343.865 332.000 C 344.194 331.010,344.795 329.390,345.200 328.400 C 345.605 327.410,346.221 325.745,346.568 324.700 C 346.916 323.655,347.484 321.945,347.832 320.900 C 348.179 319.855,348.795 318.190,349.200 317.200 C 349.605 316.210,350.221 314.545,350.568 313.500 C 350.916 312.455,351.485 310.745,351.833 309.700 C 352.181 308.655,352.793 307.080,353.194 306.200 C 353.594 305.320,354.051 303.970,354.210 303.200 C 354.368 302.430,354.814 301.170,355.200 300.400 C 355.586 299.630,356.032 298.370,356.190 297.600 C 356.349 296.830,356.716 295.824,357.007 295.364 C 357.297 294.904,357.735 293.734,357.980 292.764 C 358.225 291.794,358.765 290.190,359.181 289.200 C 359.596 288.210,360.235 286.500,360.601 285.400 C 360.967 284.300,361.536 282.590,361.866 281.600 C 362.196 280.610,362.793 279.080,363.194 278.200 C 363.594 277.320,364.047 275.970,364.200 275.200 C 364.353 274.430,364.716 273.424,365.007 272.964 C 365.297 272.504,365.732 271.334,365.974 270.364 C 366.215 269.394,366.813 267.833,367.301 266.895 C 368.878 263.867,368.740 263.818,358.357 263.687 C 346.860 263.542,346.727 263.594,345.821 268.581 C 345.663 269.451,345.213 270.801,344.821 271.581 C 344.429 272.362,343.979 273.712,343.821 274.581 C 343.663 275.451,343.213 276.801,342.821 277.581 C 342.429 278.362,341.979 279.712,341.821 280.581 C 341.663 281.451,341.213 282.801,340.821 283.581 C 340.429 284.362,339.978 285.714,339.820 286.586 C 339.661 287.459,339.251 288.714,338.909 289.377 C 338.566 290.039,338.051 291.486,337.764 292.591 C 337.110 295.110,335.705 299.396,334.982 301.079 C 334.680 301.783,334.139 303.493,333.781 304.879 C 333.422 306.266,332.981 307.580,332.800 307.800 C 332.619 308.020,332.169 309.370,331.800 310.800 C 331.431 312.230,330.970 313.592,330.777 313.826 C 330.584 314.060,330.175 315.325,329.869 316.637 C 329.563 317.949,329.033 319.564,328.690 320.225 C 328.348 320.886,327.944 322.141,327.792 323.014 C 327.464 324.896,325.755 327.717,325.077 327.495 C 324.815 327.409,324.397 326.532,324.150 325.546 C 323.902 324.560,323.429 323.224,323.098 322.576 C 322.767 321.929,322.376 320.770,322.229 320.000 C 322.082 319.230,321.627 317.790,321.217 316.800 C 320.379 314.773,319.073 310.865,318.158 307.645 C 317.822 306.460,317.302 305.110,317.003 304.645 C 316.704 304.180,316.332 303.080,316.176 302.200 C 316.019 301.320,315.583 299.970,315.205 299.200 C 314.827 298.430,314.298 296.902,314.029 295.805 C 313.761 294.708,313.381 293.618,313.185 293.382 C 312.990 293.147,312.554 291.884,312.217 290.577 C 311.880 289.270,311.347 287.660,311.032 287.000 C 310.441 285.757,309.195 282.070,308.196 278.603 C 307.880 277.504,307.360 276.064,307.041 275.403 C 306.341 273.951,304.963 269.798,304.202 266.843 C 303.896 265.656,303.447 264.486,303.203 264.243 C 302.532 263.570,283.160 263.400,282.499 264.061 M183.200 271.800 L 183.200 279.200 159.289 279.200 C 138.295 279.200,135.270 279.276,134.489 279.823 C 133.362 280.612,133.078 297.933,134.168 299.424 C 134.715 300.172,135.545 300.207,157.068 300.400 L 179.400 300.600 179.519 306.400 C 179.584 309.590,179.539 312.740,179.419 313.400 L 179.201 314.600 157.483 314.600 C 137.365 314.600,135.685 314.652,134.683 315.309 L 133.600 316.018 133.606 327.509 C 133.610 334.048,133.776 339.259,133.991 339.600 C 134.320 340.120,137.766 340.227,159.685 340.400 L 185.000 340.600 185.109 347.874 L 185.218 355.148 183.509 355.390 C 182.569 355.524,167.130 355.580,149.200 355.516 L 116.600 355.400 116.497 310.400 C 116.440 285.650,116.480 265.175,116.584 264.900 C 116.735 264.506,123.786 264.400,149.987 264.400 L 183.200 264.400 183.200 271.800 M218.342 265.150 C 218.818 265.562,219.403 266.462,219.642 267.150 C 219.882 267.837,220.232 268.400,220.420 268.400 C 220.609 268.400,221.121 269.210,221.559 270.200 C 221.997 271.190,222.518 272.000,222.717 272.000 C 222.916 272.000,223.383 272.675,223.755 273.500 C 224.820 275.860,225.946 277.764,226.534 278.200 C 226.831 278.420,227.283 279.236,227.539 280.013 C 227.795 280.790,228.364 281.734,228.802 282.109 C 229.241 282.485,229.600 283.042,229.600 283.347 C 229.600 283.652,229.872 284.128,230.205 284.404 C 230.537 284.680,231.157 285.692,231.582 286.653 C 232.007 287.614,232.528 288.400,232.738 288.400 C 232.949 288.400,233.294 288.895,233.505 289.500 C 233.911 290.664,235.553 293.352,236.536 294.461 C 236.858 294.824,237.249 295.544,237.406 296.061 C 237.563 296.577,238.045 297.386,238.476 297.857 C 239.271 298.727,240.259 300.369,241.372 302.673 C 241.711 303.373,242.186 304.067,242.427 304.217 C 242.669 304.366,243.205 305.278,243.619 306.244 C 244.033 307.210,244.544 308.000,244.755 308.000 C 244.966 308.000,245.346 308.630,245.600 309.400 C 245.854 310.170,246.226 310.800,246.426 310.800 C 246.626 310.800,247.067 311.465,247.407 312.278 C 247.746 313.091,248.301 314.036,248.638 314.378 C 249.299 315.048,250.372 316.925,251.430 319.262 C 251.810 320.102,252.653 321.026,253.415 321.436 C 256.121 322.893,255.983 324.363,256.097 292.853 L 256.200 264.600 263.800 264.600 L 271.400 264.600 271.400 310.000 L 271.400 355.400 263.167 355.508 L 254.934 355.616 253.846 354.608 C 253.248 354.053,252.570 353.060,252.340 352.400 C 252.110 351.740,251.762 351.200,251.566 351.200 C 251.371 351.200,250.935 350.539,250.597 349.732 C 250.260 348.925,249.628 348.015,249.192 347.709 C 248.756 347.404,248.397 346.850,248.393 346.477 C 248.386 345.813,246.626 342.844,245.466 341.539 C 245.143 341.176,244.751 340.456,244.594 339.939 C 244.437 339.423,243.955 338.614,243.524 338.143 C 242.729 337.273,241.741 335.631,240.628 333.327 C 240.289 332.627,239.835 331.945,239.617 331.811 C 239.400 331.677,238.868 330.764,238.434 329.783 C 238.000 328.803,237.458 328.000,237.230 328.000 C 237.002 328.000,236.704 327.557,236.568 327.016 C 236.433 326.475,236.059 325.815,235.738 325.548 C 235.417 325.282,234.891 324.434,234.569 323.664 C 234.247 322.894,233.628 322.015,233.192 321.709 C 232.756 321.404,232.397 320.850,232.393 320.477 C 232.386 319.827,230.644 316.871,229.509 315.583 C 229.210 315.243,228.725 314.384,228.430 313.673 C 228.136 312.963,227.668 312.250,227.391 312.091 C 227.113 311.931,226.587 311.170,226.222 310.400 C 225.041 307.913,224.019 306.210,223.461 305.798 C 223.162 305.578,222.776 304.948,222.603 304.398 C 222.431 303.849,221.865 302.891,221.345 302.269 C 220.825 301.647,220.400 300.910,220.400 300.631 C 220.400 299.114,217.324 297.628,216.603 298.795 C 216.469 299.012,216.372 311.595,216.389 326.757 C 216.416 351.644,216.356 354.387,215.772 354.971 C 215.215 355.528,214.116 355.603,207.863 355.509 L 200.600 355.400 200.497 310.400 C 200.440 285.650,200.480 265.175,200.584 264.900 C 200.936 263.978,217.255 264.207,218.342 265.150 M301.778 264.647 C 302.657 264.984,303.145 265.999,303.612 268.461 C 303.829 269.607,304.281 270.847,304.615 271.217 C 304.950 271.587,305.393 272.929,305.600 274.200 C 305.807 275.471,306.250 276.813,306.585 277.183 C 306.919 277.553,307.377 278.823,307.601 280.004 C 307.825 281.186,308.281 282.570,308.615 283.079 C 308.949 283.588,309.398 284.936,309.614 286.075 C 309.830 287.213,310.281 288.447,310.615 288.817 C 310.950 289.187,311.393 290.529,311.600 291.800 C 311.807 293.071,312.250 294.413,312.585 294.783 C 312.919 295.153,313.376 296.421,313.600 297.600 C 313.824 298.779,314.259 300.027,314.568 300.372 C 314.877 300.717,315.325 302.065,315.564 303.367 C 315.802 304.669,316.253 306.019,316.565 306.367 C 316.877 306.715,317.251 307.720,317.396 308.600 C 317.724 310.587,318.397 312.400,318.806 312.400 C 318.976 312.400,319.309 313.506,319.547 314.858 C 319.786 316.209,320.239 317.604,320.555 317.958 C 320.871 318.311,321.325 319.665,321.564 320.967 C 321.802 322.269,322.253 323.619,322.565 323.967 C 322.877 324.315,323.259 325.284,323.414 326.120 C 324.205 330.377,327.581 328.833,328.393 323.843 C 328.604 322.548,329.057 321.179,329.400 320.800 C 329.743 320.421,330.193 319.071,330.400 317.800 C 330.607 316.529,331.057 315.179,331.400 314.800 C 331.743 314.421,332.193 313.071,332.400 311.800 C 332.607 310.529,333.057 309.179,333.400 308.800 C 333.743 308.421,334.193 307.071,334.400 305.800 C 334.607 304.529,335.057 303.179,335.400 302.800 C 335.743 302.421,336.193 301.071,336.400 299.800 C 336.607 298.529,337.058 297.178,337.402 296.798 C 337.746 296.418,338.208 294.983,338.430 293.609 C 338.651 292.235,339.083 290.860,339.390 290.553 C 340.045 289.898,340.243 289.264,340.591 286.700 C 340.733 285.655,340.996 284.800,341.176 284.800 C 341.645 284.800,342.301 282.906,342.596 280.700 C 342.735 279.655,343.004 278.800,343.193 278.800 C 343.604 278.800,344.242 276.858,344.607 274.500 C 344.752 273.565,345.021 272.800,345.204 272.800 C 345.604 272.800,346.245 270.838,346.603 268.523 C 346.746 267.601,347.118 266.634,347.431 266.374 C 347.744 266.114,348.000 265.673,348.000 265.394 C 348.000 264.506,349.071 264.400,358.009 264.400 C 367.095 264.400,367.910 264.553,366.590 266.011 C 366.212 266.429,365.744 267.619,365.550 268.655 C 365.357 269.691,364.930 270.835,364.602 271.197 C 364.275 271.559,363.824 272.821,363.600 274.000 C 363.376 275.179,362.926 276.439,362.600 276.800 C 362.274 277.161,361.824 278.421,361.600 279.600 C 361.376 280.779,360.931 282.034,360.610 282.389 C 360.290 282.743,359.821 284.015,359.569 285.216 C 359.316 286.417,358.862 287.683,358.558 288.028 C 358.255 288.373,357.824 289.621,357.600 290.800 C 357.376 291.979,356.926 293.239,356.600 293.600 C 356.274 293.961,355.824 295.221,355.600 296.400 C 355.376 297.579,354.926 298.839,354.600 299.200 C 354.274 299.561,353.824 300.821,353.600 302.000 C 353.376 303.179,352.926 304.439,352.600 304.800 C 352.274 305.161,351.824 306.421,351.600 307.600 C 351.376 308.779,350.931 310.034,350.610 310.389 C 350.290 310.743,349.821 312.015,349.569 313.216 C 349.316 314.417,348.866 315.677,348.569 316.016 C 348.271 316.355,347.821 317.615,347.569 318.816 C 347.316 320.017,346.862 321.283,346.558 321.628 C 346.255 321.973,345.824 323.221,345.600 324.400 C 345.376 325.579,344.926 326.839,344.600 327.200 C 344.274 327.561,343.824 328.821,343.600 330.000 C 343.376 331.179,342.926 332.439,342.600 332.800 C 342.274 333.161,341.824 334.421,341.600 335.600 C 341.376 336.779,340.931 338.034,340.610 338.389 C 340.290 338.743,339.821 340.015,339.569 341.216 C 339.316 342.417,338.866 343.677,338.569 344.016 C 338.271 344.355,337.821 345.615,337.569 346.816 C 337.316 348.017,336.876 349.270,336.589 349.600 C 336.303 349.930,335.828 351.186,335.534 352.390 C 334.775 355.504,334.509 355.588,325.400 355.590 C 314.810 355.592,314.998 355.638,314.446 352.886 C 314.200 351.663,313.750 350.378,313.445 350.031 C 313.140 349.684,312.684 348.417,312.431 347.216 C 312.179 346.015,311.682 344.712,311.327 344.319 C 310.972 343.927,310.535 342.682,310.357 341.552 C 310.178 340.423,309.756 339.194,309.419 338.821 C 309.082 338.449,308.624 337.179,308.400 336.000 C 308.176 334.821,307.726 333.561,307.400 333.200 C 307.074 332.839,306.624 331.579,306.400 330.400 C 306.176 329.221,305.745 327.973,305.442 327.628 C 305.138 327.283,304.684 326.017,304.431 324.816 C 304.179 323.615,303.729 322.355,303.431 322.016 C 303.134 321.677,302.684 320.417,302.431 319.216 C 302.179 318.015,301.682 316.712,301.327 316.319 C 300.972 315.927,300.535 314.682,300.357 313.552 C 300.178 312.423,299.756 311.194,299.419 310.821 C 299.082 310.449,298.624 309.179,298.400 308.000 C 298.176 306.821,297.726 305.561,297.400 305.200 C 297.074 304.839,296.624 303.579,296.400 302.400 C 296.176 301.221,295.745 299.973,295.442 299.628 C 295.138 299.283,294.684 298.017,294.431 296.816 C 294.179 295.615,293.710 294.343,293.390 293.989 C 293.069 293.634,292.624 292.379,292.400 291.200 C 292.176 290.021,291.698 288.729,291.337 288.331 C 290.977 287.932,290.535 286.682,290.357 285.552 C 290.178 284.423,289.756 283.194,289.419 282.821 C 289.082 282.449,288.624 281.179,288.400 280.000 C 288.176 278.821,287.726 277.561,287.400 277.200 C 287.074 276.839,286.624 275.579,286.400 274.400 C 286.176 273.221,285.733 271.968,285.416 271.617 C 285.098 271.266,284.717 270.224,284.570 269.300 C 284.422 268.377,283.879 267.050,283.364 266.351 C 282.848 265.652,282.521 264.927,282.637 264.740 C 282.875 264.354,300.788 264.267,301.778 264.647 M62.184 328.498 C 62.077 328.777,62.036 335.034,62.094 342.403 L 62.200 355.800 76.000 355.800 L 89.800 355.800 89.800 342.000 L 89.800 328.200 76.089 328.095 C 65.296 328.012,62.337 328.098,62.184 328.498 M89.400 342.000 L 89.400 355.400 76.000 355.400 L 62.600 355.400 62.494 342.403 C 62.436 335.255,62.476 329.178,62.584 328.898 C 62.737 328.497,65.612 328.412,76.090 328.495 L 89.400 328.600 89.400 342.000 " stroke="none" fill="#597c2c" fill-rule="evenodd"></path><path id="path4" d="M115.401 264.143 C 114.523 265.482,114.667 354.677,115.549 355.739 C 116.261 356.597,185.066 356.774,185.920 355.920 C 186.718 355.122,186.584 340.641,185.771 339.829 C 185.214 339.271,182.381 339.200,160.633 339.200 C 137.397 339.200,136.090 339.162,135.462 338.469 C 134.482 337.385,134.454 317.018,135.433 316.643 C 135.781 316.509,145.731 316.400,157.544 316.400 C 176.336 316.400,179.133 316.322,179.911 315.777 C 181.338 314.778,181.290 300.599,179.854 299.251 L 178.909 298.363 157.702 298.421 C 142.563 298.462,136.252 298.349,135.647 298.025 C 134.277 297.292,134.327 281.020,135.700 280.652 C 136.195 280.519,147.007 280.408,159.726 280.405 C 174.892 280.402,183.119 280.257,183.626 279.986 C 184.573 279.479,184.841 264.601,183.920 263.680 C 183.554 263.314,175.415 263.200,149.729 263.200 L 116.018 263.200 115.401 264.143 M199.399 264.145 C 198.520 265.487,198.666 354.675,199.549 355.739 C 200.310 356.655,216.184 356.739,217.424 355.832 C 218.177 355.282,218.203 354.467,218.305 328.332 C 218.418 299.471,218.423 299.366,219.637 301.808 C 220.418 303.380,221.346 304.939,223.099 307.624 C 223.593 308.381,223.998 309.225,223.999 309.500 C 223.999 309.775,224.179 310.000,224.398 310.000 C 224.617 310.000,225.177 310.810,225.642 311.800 C 226.107 312.790,226.634 313.600,226.813 313.600 C 226.992 313.600,227.346 314.230,227.600 315.000 C 227.854 315.770,228.226 316.400,228.426 316.400 C 228.626 316.400,229.069 317.068,229.410 317.885 C 229.751 318.702,230.310 319.680,230.652 320.058 C 230.994 320.436,231.572 321.282,231.937 321.938 C 232.302 322.594,233.009 323.867,233.508 324.766 C 234.008 325.665,234.556 326.400,234.728 326.400 C 234.899 326.400,235.258 327.004,235.525 327.743 C 235.792 328.481,236.368 329.409,236.805 329.805 C 237.242 330.200,237.600 330.766,237.600 331.062 C 237.600 331.358,237.915 331.921,238.300 332.312 C 238.685 332.704,239.324 333.649,239.720 334.412 C 240.717 336.333,242.367 339.014,244.393 342.000 C 244.766 342.550,245.391 343.675,245.781 344.500 C 246.172 345.325,246.637 346.000,246.815 346.000 C 246.992 346.000,247.346 346.630,247.600 347.400 C 247.854 348.170,248.234 348.800,248.445 348.800 C 248.656 348.800,249.176 349.610,249.600 350.600 C 250.024 351.590,250.523 352.400,250.709 352.400 C 250.894 352.400,251.351 353.091,251.724 353.936 C 252.751 356.265,253.379 356.400,263.175 356.400 C 270.907 356.400,272.008 356.320,272.755 355.700 L 273.600 355.000 273.617 309.850 C 273.632 267.934,273.585 264.646,272.955 263.950 C 272.012 262.908,256.353 262.798,254.889 263.823 L 254.000 264.445 253.995 290.923 C 253.989 319.808,253.848 322.189,252.411 317.832 C 252.162 317.080,251.688 316.239,251.356 315.964 C 251.025 315.689,250.494 314.909,250.176 314.232 C 249.858 313.554,249.059 312.190,248.400 311.200 C 247.741 310.210,246.948 308.860,246.637 308.200 C 246.325 307.540,245.695 306.567,245.235 306.039 C 244.776 305.510,244.400 304.857,244.400 304.588 C 244.400 304.318,244.105 303.853,243.745 303.555 C 243.385 303.256,242.762 302.244,242.360 301.306 C 241.957 300.368,241.460 299.600,241.253 299.600 C 241.047 299.600,240.706 299.105,240.495 298.500 C 240.099 297.364,238.462 294.669,237.508 293.583 C 237.210 293.243,236.732 292.401,236.446 291.712 C 236.161 291.022,235.583 290.147,235.163 289.767 C 234.744 289.387,234.400 288.815,234.400 288.496 C 234.400 288.177,233.950 287.381,233.400 286.727 C 232.850 286.073,232.400 285.304,232.400 285.018 C 232.400 284.732,232.105 284.253,231.745 283.955 C 231.385 283.656,230.762 282.644,230.360 281.706 C 229.957 280.768,229.456 280.000,229.245 280.000 C 229.034 280.000,228.654 279.370,228.400 278.600 C 228.146 277.830,227.774 277.200,227.574 277.200 C 227.374 277.200,226.932 276.525,226.592 275.700 C 226.252 274.875,225.755 274.020,225.487 273.800 C 225.219 273.580,224.673 272.770,224.273 272.000 C 222.903 269.364,222.173 268.146,221.287 267.019 C 220.799 266.399,220.400 265.659,220.400 265.375 C 220.400 263.517,218.760 263.200,209.155 263.200 L 200.018 263.200 199.399 264.145 M282.080 263.680 C 281.383 264.377,281.494 266.021,282.331 267.400 C 282.732 268.060,283.283 269.500,283.556 270.600 C 283.829 271.700,284.281 272.960,284.560 273.400 C 284.840 273.840,285.290 275.100,285.560 276.200 C 285.831 277.300,286.281 278.560,286.560 279.000 C 286.840 279.440,287.290 280.700,287.560 281.800 C 287.831 282.900,288.290 284.167,288.580 284.616 C 288.871 285.065,289.319 286.446,289.576 287.685 C 289.833 288.925,290.290 290.143,290.591 290.392 C 290.891 290.642,291.259 291.601,291.407 292.523 C 291.555 293.445,291.986 294.740,292.365 295.400 C 292.745 296.060,293.279 297.500,293.553 298.600 C 293.828 299.700,294.281 300.960,294.560 301.400 C 294.840 301.840,295.283 303.065,295.546 304.123 C 295.808 305.181,296.378 306.708,296.812 307.517 C 297.245 308.326,297.600 309.358,297.600 309.809 C 297.600 310.261,297.937 311.291,298.348 312.099 C 298.760 312.906,299.305 314.394,299.560 315.406 C 299.815 316.418,300.378 317.908,300.812 318.717 C 301.245 319.526,301.600 320.558,301.600 321.009 C 301.600 321.461,301.937 322.491,302.348 323.299 C 302.760 324.106,303.312 325.629,303.574 326.683 C 303.837 327.737,304.281 328.960,304.560 329.400 C 304.840 329.840,305.283 331.065,305.546 332.123 C 305.808 333.181,306.378 334.708,306.812 335.517 C 307.245 336.326,307.600 337.358,307.600 337.809 C 307.600 338.261,307.937 339.291,308.348 340.099 C 308.760 340.906,309.305 342.394,309.560 343.406 C 309.815 344.418,310.378 345.908,310.812 346.717 C 311.245 347.526,311.600 348.558,311.600 349.009 C 311.600 349.461,311.950 350.516,312.377 351.354 C 312.804 352.192,313.269 353.402,313.409 354.043 C 313.927 356.401,313.924 356.400,324.967 356.400 C 335.692 356.400,336.370 356.280,336.413 354.369 C 336.419 354.056,336.868 352.900,337.409 351.800 C 337.950 350.700,338.400 349.440,338.409 349.000 C 338.418 348.560,338.868 347.300,339.409 346.200 C 339.950 345.100,340.400 343.840,340.409 343.400 C 340.418 342.960,340.868 341.700,341.409 340.600 C 341.950 339.500,342.396 338.240,342.400 337.800 C 342.404 337.360,342.850 336.100,343.391 335.000 C 343.932 333.900,344.386 332.640,344.400 332.200 C 344.414 331.760,344.868 330.500,345.409 329.400 C 345.950 328.300,346.400 327.040,346.409 326.600 C 346.418 326.160,346.868 324.900,347.409 323.800 C 347.950 322.700,348.400 321.440,348.409 321.000 C 348.418 320.560,348.868 319.300,349.409 318.200 C 349.950 317.100,350.400 315.840,350.409 315.400 C 350.418 314.960,350.868 313.700,351.409 312.600 C 351.950 311.500,352.394 310.237,352.396 309.794 C 352.398 309.351,352.755 308.326,353.188 307.517 C 353.622 306.708,354.185 305.218,354.440 304.206 C 354.695 303.194,355.240 301.706,355.652 300.899 C 356.063 300.091,356.400 299.062,356.400 298.612 C 356.400 298.162,356.826 296.985,357.346 295.997 C 357.866 295.009,358.407 293.560,358.549 292.778 C 358.691 291.995,359.166 290.652,359.604 289.793 C 360.042 288.934,360.406 287.864,360.413 287.415 C 360.419 286.967,360.868 285.700,361.409 284.600 C 361.950 283.500,362.394 282.237,362.396 281.794 C 362.398 281.351,362.755 280.326,363.188 279.517 C 363.622 278.708,364.192 277.181,364.454 276.123 C 364.717 275.065,365.157 273.840,365.433 273.400 C 365.709 272.960,366.139 271.790,366.389 270.800 C 366.639 269.810,367.233 268.246,367.708 267.325 C 368.399 265.985,368.493 265.425,368.177 264.525 L 367.781 263.400 357.879 263.293 L 347.978 263.186 347.029 264.134 C 346.444 264.720,345.895 265.979,345.595 267.425 C 345.327 268.714,344.866 270.137,344.570 270.589 C 344.274 271.041,343.821 272.396,343.562 273.601 C 343.304 274.806,342.854 276.156,342.562 276.601 C 342.271 277.046,341.821 278.396,341.562 279.601 C 341.304 280.806,340.854 282.156,340.562 282.601 C 340.271 283.046,339.821 284.396,339.562 285.601 C 339.304 286.806,338.854 288.156,338.562 288.601 C 338.271 289.046,337.821 290.396,337.562 291.601 C 337.304 292.806,336.867 294.154,336.591 294.596 C 336.316 295.038,335.862 296.390,335.584 297.600 C 335.306 298.810,334.854 300.160,334.579 300.600 C 334.304 301.040,333.882 302.354,333.640 303.520 C 333.398 304.686,332.930 306.162,332.600 306.800 C 332.270 307.438,331.796 308.912,331.546 310.076 C 331.297 311.240,330.854 312.556,330.562 313.001 C 330.271 313.446,329.821 314.796,329.562 316.001 C 329.304 317.206,328.854 318.556,328.562 319.001 C 328.271 319.446,327.823 320.785,327.568 321.975 C 327.313 323.166,326.602 324.833,325.989 325.679 L 324.873 327.219 324.603 325.509 C 324.454 324.569,323.996 323.080,323.585 322.200 C 323.174 321.320,322.639 319.700,322.397 318.600 C 322.154 317.500,321.720 316.238,321.432 315.796 C 321.143 315.354,320.706 314.054,320.460 312.907 C 320.214 311.760,319.650 310.144,319.207 309.317 C 318.763 308.489,318.400 307.442,318.400 306.991 C 318.400 306.539,318.052 305.486,317.626 304.651 C 317.200 303.816,316.653 302.205,316.410 301.071 C 316.167 299.938,315.735 298.648,315.450 298.205 C 315.165 297.762,314.710 296.500,314.440 295.400 C 314.169 294.300,313.714 293.038,313.428 292.596 C 313.142 292.154,312.696 290.806,312.438 289.601 C 312.179 288.396,311.729 287.046,311.438 286.601 C 311.146 286.156,310.696 284.806,310.438 283.601 C 310.179 282.396,309.704 281.008,309.382 280.517 C 309.060 280.025,308.606 278.733,308.372 277.645 C 308.139 276.557,307.600 274.984,307.174 274.149 C 306.748 273.314,306.398 272.264,306.396 271.815 C 306.394 271.367,305.950 270.100,305.409 269.000 C 304.868 267.900,304.419 266.505,304.413 265.900 C 304.383 263.314,303.887 263.200,292.680 263.200 C 285.342 263.200,282.428 263.332,282.080 263.680 M183.520 264.080 C 184.196 264.756,184.196 278.844,183.520 279.520 C 183.158 279.882,177.274 280.000,159.494 280.000 C 144.028 280.000,135.682 280.142,135.174 280.414 C 134.446 280.804,134.400 281.334,134.400 289.386 C 134.400 298.418,134.550 299.183,136.329 299.210 C 136.698 299.216,146.431 299.211,157.957 299.200 C 177.041 299.182,178.981 299.240,179.657 299.852 C 180.501 300.615,180.786 312.532,180.010 314.574 L 179.620 315.600 158.110 315.640 C 146.279 315.662,136.150 315.805,135.600 315.958 L 134.600 316.236 134.494 327.283 C 134.401 336.932,134.468 338.411,135.022 338.965 C 135.588 339.531,138.332 339.600,160.349 339.600 C 179.020 339.600,185.157 339.717,185.520 340.080 C 186.196 340.756,186.196 354.844,185.520 355.520 C 184.824 356.216,116.776 356.216,116.080 355.520 C 115.383 354.823,115.383 264.777,116.080 264.080 C 116.775 263.385,182.825 263.385,183.520 264.080 M218.946 264.429 C 219.526 264.885,220.000 265.501,220.000 265.798 C 220.000 266.095,220.412 266.847,220.916 267.469 C 221.419 268.091,222.052 269.050,222.322 269.600 C 222.592 270.150,223.344 271.410,223.993 272.400 C 224.642 273.390,225.563 274.920,226.040 275.800 C 226.517 276.680,227.039 277.490,227.200 277.600 C 227.361 277.710,227.922 278.580,228.446 279.534 C 230.505 283.278,230.747 283.679,231.363 284.359 C 231.713 284.746,232.000 285.260,232.000 285.501 C 232.000 285.742,232.412 286.447,232.916 287.069 C 233.419 287.691,234.052 288.650,234.322 289.200 C 234.592 289.750,235.344 291.010,235.993 292.000 C 236.642 292.990,237.545 294.430,238.000 295.200 C 238.455 295.970,239.361 297.410,240.014 298.400 C 240.667 299.390,241.559 300.941,241.996 301.847 C 242.433 302.753,243.063 303.720,243.395 303.996 C 243.728 304.272,244.000 304.684,244.000 304.911 C 244.000 305.139,244.450 305.914,245.000 306.636 C 245.550 307.357,246.000 308.125,246.000 308.343 C 246.000 308.560,246.412 309.247,246.916 309.869 C 247.419 310.491,248.052 311.450,248.322 312.000 C 248.592 312.550,249.350 313.810,250.007 314.800 C 250.664 315.790,251.569 317.365,252.019 318.300 C 252.864 320.055,253.568 320.402,254.356 319.452 C 254.686 319.055,254.806 311.455,254.794 291.755 C 254.779 266.537,254.827 264.570,255.465 264.103 C 256.439 263.391,271.161 263.391,272.134 264.102 C 272.983 264.723,273.191 354.447,272.346 355.465 C 272.000 355.882,269.948 356.000,263.026 356.000 L 254.150 356.000 253.154 354.900 C 252.154 353.796,251.108 352.247,248.956 348.686 C 248.320 347.633,247.308 346.013,246.707 345.086 C 246.106 344.159,245.611 343.203,245.607 342.962 C 245.603 342.721,245.240 342.198,244.800 341.800 C 244.360 341.402,244.000 340.859,244.000 340.593 C 244.000 340.327,243.460 339.431,242.800 338.600 C 242.140 337.769,241.600 336.927,241.600 336.729 C 241.600 336.530,241.268 335.880,240.863 335.284 C 240.145 334.229,238.828 332.158,236.931 329.100 C 234.907 325.838,234.097 324.552,233.364 323.439 C 232.267 321.771,230.987 319.643,229.973 317.800 C 229.489 316.920,228.961 316.110,228.800 316.000 C 228.639 315.890,228.117 315.080,227.640 314.200 C 227.163 313.320,226.246 311.790,225.601 310.800 C 224.957 309.810,224.181 308.460,223.877 307.800 C 223.573 307.140,223.026 306.353,222.662 306.051 C 222.298 305.749,221.997 305.299,221.993 305.051 C 221.989 304.803,221.494 303.857,220.893 302.948 C 220.292 302.039,219.601 300.960,219.358 300.551 C 218.978 299.910,218.824 299.882,218.258 300.352 C 217.659 300.849,217.600 303.336,217.600 328.035 C 217.600 354.455,217.580 355.183,216.826 355.586 C 215.685 356.197,200.698 356.138,200.080 355.520 C 199.383 354.823,199.383 264.777,200.080 264.080 C 201.036 263.124,217.679 263.432,218.946 264.429 M303.203 264.243 C 303.447 264.486,303.896 265.656,304.202 266.843 C 304.963 269.798,306.341 273.951,307.041 275.403 C 307.360 276.064,307.880 277.504,308.196 278.603 C 309.195 282.070,310.441 285.757,311.032 287.000 C 311.347 287.660,311.880 289.270,312.217 290.577 C 312.554 291.884,312.990 293.147,313.185 293.382 C 313.381 293.618,313.761 294.708,314.029 295.805 C 314.298 296.902,314.827 298.430,315.205 299.200 C 315.583 299.970,316.019 301.320,316.176 302.200 C 316.332 303.080,316.704 304.180,317.003 304.645 C 317.302 305.110,317.822 306.460,318.158 307.645 C 319.073 310.865,320.379 314.773,321.217 316.800 C 321.627 317.790,322.082 319.230,322.229 320.000 C 322.376 320.770,322.767 321.929,323.098 322.576 C 323.429 323.224,323.902 324.560,324.150 325.546 C 324.397 326.532,324.815 327.409,325.077 327.495 C 325.755 327.717,327.464 324.896,327.792 323.014 C 327.944 322.141,328.348 320.886,328.690 320.225 C 329.033 319.564,329.563 317.949,329.869 316.637 C 330.175 315.325,330.584 314.060,330.777 313.826 C 330.970 313.592,331.431 312.230,331.800 310.800 C 332.169 309.370,332.619 308.020,332.800 307.800 C 332.981 307.580,333.422 306.266,333.781 304.879 C 334.139 303.493,334.680 301.783,334.982 301.079 C 335.705 299.396,337.110 295.110,337.764 292.591 C 338.051 291.486,338.566 290.039,338.909 289.377 C 339.251 288.714,339.661 287.459,339.820 286.586 C 339.978 285.714,340.429 284.362,340.821 283.581 C 341.213 282.801,341.663 281.451,341.821 280.581 C 341.979 279.712,342.429 278.362,342.821 277.581 C 343.213 276.801,343.663 275.451,343.821 274.581 C 343.979 273.712,344.429 272.362,344.821 271.581 C 345.213 270.801,345.663 269.451,345.821 268.581 C 346.727 263.594,346.860 263.542,358.357 263.687 C 368.740 263.818,368.878 263.867,367.301 266.895 C 366.813 267.833,366.215 269.394,365.974 270.364 C 365.732 271.334,365.297 272.504,365.007 272.964 C 364.716 273.424,364.353 274.430,364.200 275.200 C 364.047 275.970,363.594 277.320,363.194 278.200 C 362.793 279.080,362.196 280.610,361.866 281.600 C 361.536 282.590,360.967 284.300,360.601 285.400 C 360.235 286.500,359.596 288.210,359.181 289.200 C 358.765 290.190,358.225 291.794,357.980 292.764 C 357.735 293.734,357.297 294.904,357.007 295.364 C 356.716 295.824,356.349 296.830,356.190 297.600 C 356.032 298.370,355.586 299.630,355.200 300.400 C 354.814 301.170,354.368 302.430,354.210 303.200 C 354.051 303.970,353.594 305.320,353.194 306.200 C 352.793 307.080,352.181 308.655,351.833 309.700 C 351.485 310.745,350.916 312.455,350.568 313.500 C 350.221 314.545,349.605 316.210,349.200 317.200 C 348.795 318.190,348.179 319.855,347.832 320.900 C 347.484 321.945,346.916 323.655,346.568 324.700 C 346.221 325.745,345.605 327.410,345.200 328.400 C 344.795 329.390,344.194 331.010,343.865 332.000 C 343.535 332.990,342.964 334.700,342.596 335.800 C 342.227 336.900,341.492 338.813,340.963 340.050 C 340.433 341.288,340.000 342.588,340.000 342.939 C 340.000 343.291,339.652 344.348,339.228 345.289 C 338.803 346.230,338.186 347.810,337.858 348.800 C 336.418 353.134,335.491 355.421,335.062 355.694 C 334.808 355.856,330.167 355.991,324.749 355.994 C 314.009 356.001,314.310 356.066,313.807 353.600 C 313.650 352.830,313.276 351.812,312.976 351.337 C 312.676 350.863,312.221 349.603,311.965 348.537 C 311.709 347.472,311.251 346.200,310.948 345.710 C 310.644 345.221,310.131 343.805,309.807 342.563 C 309.484 341.321,309.048 340.099,308.839 339.847 C 308.630 339.595,308.243 338.492,307.980 337.395 C 307.716 336.298,307.259 335.012,306.965 334.537 C 306.671 334.063,306.221 332.803,305.965 331.737 C 305.709 330.672,305.259 329.412,304.965 328.937 C 304.671 328.463,304.221 327.203,303.965 326.137 C 303.709 325.072,303.259 323.812,302.965 323.337 C 302.671 322.863,302.221 321.603,301.965 320.537 C 301.709 319.472,301.251 318.200,300.948 317.710 C 300.644 317.221,300.131 315.805,299.807 314.563 C 299.484 313.321,299.048 312.099,298.839 311.847 C 298.630 311.595,298.243 310.492,297.980 309.395 C 297.716 308.298,297.259 307.012,296.965 306.537 C 296.671 306.063,296.221 304.803,295.965 303.737 C 295.709 302.672,295.259 301.412,294.965 300.937 C 294.671 300.463,294.221 299.203,293.965 298.137 C 293.709 297.072,293.259 295.812,292.965 295.337 C 292.671 294.863,292.211 293.603,291.943 292.537 C 291.674 291.472,291.141 290.060,290.757 289.400 C 290.373 288.740,289.935 287.480,289.784 286.600 C 289.634 285.720,289.259 284.600,288.953 284.110 C 288.646 283.621,288.131 282.205,287.807 280.963 C 287.484 279.721,287.048 278.499,286.839 278.247 C 286.630 277.995,286.243 276.892,285.980 275.795 C 285.716 274.698,285.259 273.412,284.965 272.937 C 284.671 272.463,284.219 271.203,283.961 270.137 C 283.703 269.072,283.157 267.639,282.746 266.953 C 281.873 265.494,281.810 264.750,282.499 264.061 C 283.160 263.400,302.532 263.570,303.203 264.243 M62.080 328.080 C 61.393 328.767,61.393 355.233,62.080 355.920 C 62.767 356.607,89.233 356.607,89.920 355.920 C 90.607 355.233,90.607 328.767,89.920 328.080 C 89.566 327.726,85.920 327.600,76.000 327.600 C 66.080 327.600,62.434 327.726,62.080 328.080 M89.800 342.000 L 89.800 355.800 76.000 355.800 L 62.200 355.800 62.094 342.403 C 62.036 335.034,62.077 328.777,62.184 328.498 C 62.337 328.098,65.296 328.012,76.089 328.095 L 89.800 328.200 89.800 342.000 " stroke="none" fill="#a0a832" fill-rule="evenodd"></path></g></svg>