<svg height="512" viewBox="0 0 64 64" width="512" xmlns="http://www.w3.org/2000/svg"><g id="Coding"><path d="m38 53v2a2 2 0 0 1 -2 2h-8a2 2 0 0 1 -2-2v-2h-23v2a6 6 0 0 0 6 6h46a6 6 0 0 0 6-6v-2z" fill="#9bc9ff"/><path d="m38 53h20v-36a4 4 0 0 0 -4-4h-44a4 4 0 0 0 -4 4v36zm-28-30v-6h44v32h-44z" fill="#9bc9ff"/><path d="m10 17v6h22 22v-6z" fill="#9bc9ff"/><path d="m36 27h5v4h-5z" fill="#9bc9ff"/><path d="m45 27h5v4h-5z" fill="#9bc9ff"/><path d="m36 34h14v4h-14z" fill="#9bc9ff"/><path d="m36 41h5v4h-5z" fill="#9bc9ff"/><path d="m45 41h5v4h-5z" fill="#9bc9ff"/><g fill="#1e81ce"><path d="m61 52h-2v-35a5.006 5.006 0 0 0 -5-5h-44a5.006 5.006 0 0 0 -5 5v35h-2a1 1 0 0 0 -1 1v2a7.008 7.008 0 0 0 7 7h46a7.008 7.008 0 0 0 7-7v-2a1 1 0 0 0 -1-1zm-54-35a3 3 0 0 1 3-3h44a3 3 0 0 1 3 3v35h-50zm20 37h10v1a1 1 0 0 1 -1 1h-8a1 1 0 0 1 -1-1zm33 1a5.006 5.006 0 0 1 -5 5h-46a5.006 5.006 0 0 1 -5-5v-1h21v1a3 3 0 0 0 3 3h8a3 3 0 0 0 3-3v-1h21z"/><path d="m54 50a1 1 0 0 0 1-1v-32a1 1 0 0 0 -1-1h-44a1 1 0 0 0 -1 1v32a1 1 0 0 0 1 1zm-1-2h-20v-24h20zm-42-30h42v4h-42zm0 6h20v24h-20z"/><path d="m14 19h-1a1 1 0 0 0 0 2h1a1 1 0 0 0 0-2z"/><path d="m18 19h-1a1 1 0 0 0 0 2h1a1 1 0 0 0 0-2z"/><path d="m22 19h-1a1 1 0 0 0 0 2h1a1 1 0 0 0 0-2z"/><path d="m36 32h5a1 1 0 0 0 1-1v-4a1 1 0 0 0 -1-1h-5a1 1 0 0 0 -1 1v4a1 1 0 0 0 1 1zm1-4h3v2h-3z"/><path d="m45 32h5a1 1 0 0 0 1-1v-4a1 1 0 0 0 -1-1h-5a1 1 0 0 0 -1 1v4a1 1 0 0 0 1 1zm1-4h3v2h-3z"/><path d="m36 39h14a1 1 0 0 0 1-1v-4a1 1 0 0 0 -1-1h-14a1 1 0 0 0 -1 1v4a1 1 0 0 0 1 1zm1-4h12v2h-12z"/><path d="m36 46h5a1 1 0 0 0 1-1v-4a1 1 0 0 0 -1-1h-5a1 1 0 0 0 -1 1v4a1 1 0 0 0 1 1zm1-4h3v2h-3z"/><path d="m50 40h-5a1 1 0 0 0 -1 1v4a1 1 0 0 0 1 1h5a1 1 0 0 0 1-1v-4a1 1 0 0 0 -1-1zm-1 4h-3v-2h3z"/><path d="m15.707 25.293a1 1 0 0 0 -1.414 0l-2 2a1 1 0 0 0 0 1.414l2 2a1 1 0 0 0 1.414-1.414l-1.293-1.293 1.293-1.293a1 1 0 0 0 0-1.414z"/><path d="m22.293 30.707a1 1 0 0 0 1.414 0l2-2a1 1 0 0 0 0-1.414l-2-2a1 1 0 0 0 -1.414 1.414l1.293 1.293-1.293 1.293a1 1 0 0 0 0 1.414z"/><path d="m17.553 30.9a1 1 0 0 0 1.342-.448l2-4a1 1 0 0 0 -1.79-.894l-2 4a1 1 0 0 0 .448 1.342z"/><path d="m15 33h-1a1 1 0 0 0 0 2h1a1 1 0 0 0 0-2z"/><path d="m18 35h10a1 1 0 0 0 0-2h-10a1 1 0 0 0 0 2z"/><path d="m15 36h-1a1 1 0 0 0 0 2h1a1 1 0 0 0 0-2z"/><path d="m28 36h-10a1 1 0 0 0 0 2h10a1 1 0 0 0 0-2z"/><path d="m18 42h1a1 1 0 0 0 0-2h-1a1 1 0 0 0 0 2z"/><path d="m15 44h-1a1 1 0 0 0 0 2h1a1 1 0 0 0 0-2z"/><path d="m28 44h-10a1 1 0 0 0 0 2h10a1 1 0 0 0 0-2z"/><path d="m26 42a1 1 0 0 0 0-2h-3a1 1 0 0 0 0 2z"/></g></g></svg>